<svg xmlns="http://www.w3.org/2000/svg" xmlns:xlink="http://www.w3.org/1999/xlink" contentStyleType="text/css" height="962px" preserveAspectRatio="none" style="width:1076px;height:962px;background:#FFFFFF;" version="1.1" viewBox="0 0 1076 962" width="1076px" zoomAndPan="magnify"><title>Despliegue Docker &#8212; teleasist_network</title><defs/><g><text fill="#000000" font-family="sans-serif" font-size="14" font-weight="bold" lengthAdjust="spacing" textLength="265.7607" x="398.4783" y="24.5332">Despliegue Docker &#8212; teleasist_network</text><!--cluster Host docker-compose--><g id="cluster_Host docker-compose"><polygon fill="none" points="16,196.1094,26,186.1094,939,186.1094,939,935.1094,929,945.1094,16,945.1094,16,196.1094" style="stroke:#181818;stroke-width:1;"/><line style="stroke:#181818;stroke-width:1;" x1="929" x2="939" y1="196.1094" y2="186.1094"/><line style="stroke:#181818;stroke-width:1;" x1="16" x2="929" y1="196.1094" y2="196.1094"/><line style="stroke:#181818;stroke-width:1;" x1="929" x2="929" y1="196.1094" y2="945.1094"/><text fill="#000000" font-family="sans-serif" font-size="14" font-weight="bold" lengthAdjust="spacing" textLength="147.0342" x="399.9829" y="213.6426">Host docker-compose</text></g><!--cluster teleasist_network  (bridge)--><g id="cluster_teleasist_network  (bridge)"><rect fill="none" height="686" rx="2.5" ry="2.5" style="stroke:#181818;stroke-width:1;" width="875" x="40" y="235.1094"/><path d="M227.3789,235.1094 L227.3789,245.7188 L217.3789,255.7188 L40,255.7188 " fill="none" style="stroke:#181818;stroke-width:1;"/><text fill="#000000" font-family="sans-serif" font-size="14" font-weight="bold" lengthAdjust="spacing" textLength="177.3789" x="43" y="250.6426">teleasist_network  (bridge)</text></g><!--cluster PG--><g id="cluster_PG"><polygon fill="none" points="484,650.1094,494,640.1094,639,640.1094,639,887.1094,629,897.1094,484,897.1094,484,650.1094" style="stroke:#181818;stroke-width:1;"/><line style="stroke:#181818;stroke-width:1;" x1="629" x2="639" y1="650.1094" y2="640.1094"/><line style="stroke:#181818;stroke-width:1;" x1="484" x2="629" y1="650.1094" y2="650.1094"/><line style="stroke:#181818;stroke-width:1;" x1="629" x2="629" y1="650.1094" y2="897.1094"/><text fill="#000000" font-family="sans-serif" font-size="14" font-weight="bold" lengthAdjust="spacing" textLength="79.3584" x="517.8208" y="667.6426">postgres:15</text></g><!--cluster MQTT--><g id="cluster_MQTT"><polygon fill="none" points="663,641.1094,673,631.1094,891,631.1094,891,887.1094,881,897.1094,663,897.1094,663,641.1094" style="stroke:#181818;stroke-width:1;"/><line style="stroke:#181818;stroke-width:1;" x1="881" x2="891" y1="641.1094" y2="631.1094"/><line style="stroke:#181818;stroke-width:1;" x1="663" x2="881" y1="641.1094" y2="641.1094"/><line style="stroke:#181818;stroke-width:1;" x1="881" x2="881" y1="641.1094" y2="897.1094"/><text fill="#000000" font-family="sans-serif" font-size="14" font-weight="bold" lengthAdjust="spacing" textLength="119.793" x="713.1035" y="658.6426">eclipse-mosquitto</text></g><!--cluster BE--><g id="cluster_BE"><polygon fill="none" points="279,454.1094,289,444.1094,460,444.1094,460,751.1094,450,761.1094,279,761.1094,279,454.1094" style="stroke:#181818;stroke-width:1;"/><line style="stroke:#181818;stroke-width:1;" x1="450" x2="460" y1="454.1094" y2="444.1094"/><line style="stroke:#181818;stroke-width:1;" x1="279" x2="450" y1="454.1094" y2="454.1094"/><line style="stroke:#181818;stroke-width:1;" x1="450" x2="450" y1="454.1094" y2="761.1094"/><text fill="#000000" font-family="sans-serif" font-size="14" font-weight="bold" lengthAdjust="spacing" textLength="105.8135" x="312.5933" y="471.6426">backend (Flask)</text></g><!--cluster FE--><g id="cluster_FE"><polygon fill="none" points="64,289.1094,74,279.1094,255,279.1094,255,555.1094,245,565.1094,64,565.1094,64,289.1094" style="stroke:#181818;stroke-width:1;"/><line style="stroke:#181818;stroke-width:1;" x1="245" x2="255" y1="289.1094" y2="279.1094"/><line style="stroke:#181818;stroke-width:1;" x1="64" x2="245" y1="289.1094" y2="289.1094"/><line style="stroke:#181818;stroke-width:1;" x1="245" x2="245" y1="289.1094" y2="565.1094"/><text fill="#000000" font-family="sans-serif" font-size="14" font-weight="bold" lengthAdjust="spacing" textLength="115.8896" x="97.5552" y="306.6426">frontend (Next.js)</text></g><!--entity pg_svc--><g id="elem_pg_svc"><rect fill="#F1F1F1" height="55.2188" rx="2.5" ry="2.5" style="stroke:#181818;stroke-width:0.5;" width="96.2617" x="506" y="681.1094"/><text fill="#000000" font-family="sans-serif" font-size="14" lengthAdjust="spacing" textLength="76.2617" x="516" y="705.6426">PostgreSQL</text><text fill="#000000" font-family="sans-serif" font-size="14" lengthAdjust="spacing" textLength="35.0342" x="516" y="723.252">:5432</text></g><!--entity v_pg--><g id="elem_v_pg"><path d="M503,808.1094 L544,808.1094 A3.75,3.75 0 0 1 546.5,810.6094 L553.5,829.1094 L616.7305,829.1094 A2.5,2.5 0 0 1 619.2305,831.6094 L619.2305,878.8281 A2.5,2.5 0 0 1 616.7305,881.3281 L503,881.3281 A2.5,2.5 0 0 1 500.5,878.8281 L500.5,810.6094 A2.5,2.5 0 0 1 503,808.1094 " fill="#F1F1F1" style="stroke:#181818;stroke-width:0.5;"/><line style="stroke:#181818;stroke-width:0.5;" x1="500.5" x2="553.5" y1="829.1094" y2="829.1094"/><text fill="#000000" font-family="sans-serif" font-size="14" lengthAdjust="spacing" textLength="56.8066" x="510.5" y="850.6426">volumen:</text><text fill="#000000" font-family="sans-serif" font-size="14" lengthAdjust="spacing" textLength="88.7305" x="510.5" y="868.252">postgres_data</text></g><!--entity mq_svc--><g id="elem_mq_svc"><rect fill="#F1F1F1" height="72.8281" rx="2.5" ry="2.5" style="stroke:#181818;stroke-width:0.5;" width="139.834" x="707" y="672.1094"/><text fill="#000000" font-family="sans-serif" font-size="14" lengthAdjust="spacing" textLength="60.6963" x="717" y="696.6426">Mosquitto</text><text fill="#000000" font-family="sans-serif" font-size="14" lengthAdjust="spacing" textLength="87.9033" x="717" y="714.252">:1884 (MQTT)</text><text fill="#000000" font-family="sans-serif" font-size="14" lengthAdjust="spacing" textLength="119.834" x="717" y="731.8613">:9001 (WebSocket)</text></g><!--entity v_mq--><g id="elem_v_mq"><path d="M682,808.1094 L723,808.1094 A3.75,3.75 0 0 1 725.5,810.6094 L732.5,829.1094 L872.0059,829.1094 A2.5,2.5 0 0 1 874.5059,831.6094 L874.5059,878.8281 A2.5,2.5 0 0 1 872.0059,881.3281 L682,881.3281 A2.5,2.5 0 0 1 679.5,878.8281 L679.5,810.6094 A2.5,2.5 0 0 1 682,808.1094 " fill="#F1F1F1" style="stroke:#181818;stroke-width:0.5;"/><line style="stroke:#181818;stroke-width:0.5;" x1="679.5" x2="732.5" y1="829.1094" y2="829.1094"/><text fill="#000000" font-family="sans-serif" font-size="14" lengthAdjust="spacing" textLength="56.8066" x="689.5" y="850.6426">volumen:</text><text fill="#000000" font-family="sans-serif" font-size="14" lengthAdjust="spacing" textLength="165.0059" x="689.5" y="868.252">mosquitto/{config,data,log}</text></g><!--entity be_svc--><g id="elem_be_svc"><rect fill="#F1F1F1" height="55.2188" rx="2.5" ry="2.5" style="stroke:#181818;stroke-width:0.5;" width="132.4375" x="312" y="485.1094"/><text fill="#000000" font-family="sans-serif" font-size="14" lengthAdjust="spacing" textLength="112.4375" x="322" y="509.6426">Flask + paho-mqtt</text><text fill="#000000" font-family="sans-serif" font-size="14" lengthAdjust="spacing" textLength="35.0342" x="322" y="527.252">:5000</text></g><!--entity v_be--><g id="elem_v_be"><path d="M319.5,672.1094 L360.5,672.1094 A3.75,3.75 0 0 1 363,674.6094 L370,693.1094 L436.3477,693.1094 A2.5,2.5 0 0 1 438.8477,695.6094 L438.8477,742.8281 A2.5,2.5 0 0 1 436.3477,745.3281 L319.5,745.3281 A2.5,2.5 0 0 1 317,742.8281 L317,674.6094 A2.5,2.5 0 0 1 319.5,672.1094 " fill="#F1F1F1" style="stroke:#181818;stroke-width:0.5;"/><line style="stroke:#181818;stroke-width:0.5;" x1="317" x2="370" y1="693.1094" y2="693.1094"/><text fill="#000000" font-family="sans-serif" font-size="14" lengthAdjust="spacing" textLength="56.8066" x="327" y="714.6426">volumen:</text><text fill="#000000" font-family="sans-serif" font-size="14" lengthAdjust="spacing" textLength="91.8477" x="327" y="732.252">./backend:/app</text></g><!--entity fe_svc--><g id="elem_fe_svc"><rect fill="#F1F1F1" height="55.2188" rx="2.5" ry="2.5" style="stroke:#181818;stroke-width:0.5;" width="62.7861" x="170.5" y="320.1094"/><text fill="#000000" font-family="sans-serif" font-size="14" lengthAdjust="spacing" textLength="42.7861" x="180.5" y="344.6426">Next.js</text><text fill="#000000" font-family="sans-serif" font-size="14" lengthAdjust="spacing" textLength="35.0342" x="180.5" y="362.252">:3000</text></g><!--entity v_fe--><g id="elem_v_fe"><path d="M116.5,476.1094 L157.5,476.1094 A3.75,3.75 0 0 1 160,478.6094 L167,497.1094 L231.7891,497.1094 A2.5,2.5 0 0 1 234.2891,499.6094 L234.2891,546.8281 A2.5,2.5 0 0 1 231.7891,549.3281 L116.5,549.3281 A2.5,2.5 0 0 1 114,546.8281 L114,478.6094 A2.5,2.5 0 0 1 116.5,476.1094 " fill="#F1F1F1" style="stroke:#181818;stroke-width:0.5;"/><line style="stroke:#181818;stroke-width:0.5;" x1="114" x2="167" y1="497.1094" y2="497.1094"/><text fill="#000000" font-family="sans-serif" font-size="14" lengthAdjust="spacing" textLength="56.8066" x="124" y="518.6426">volumen:</text><text fill="#000000" font-family="sans-serif" font-size="14" lengthAdjust="spacing" textLength="90.2891" x="124" y="536.252">./frontend:/app</text></g><!--entity Cliente--><g id="elem_Cliente"><ellipse cx="292.1274" cy="52.6094" fill="#F1F1F1" rx="8" ry="8" style="stroke:#181818;stroke-width:0.5;"/><path d="M292.1274,60.6094 L292.1274,87.6094 M279.1274,68.6094 L305.1274,68.6094 M292.1274,87.6094 L279.1274,102.6094 M292.1274,87.6094 L305.1274,102.6094 " fill="none" style="stroke:#181818;stroke-width:0.5;"/><text fill="#000000" font-family="sans-serif" font-size="14" lengthAdjust="spacing" textLength="76.2549" x="254" y="118.6426">Cliente Web</text></g><!--entity ESP--><g id="elem_ESP"><path d="M965.6839,324.6839 C967.2086,317.6908 970.7296,316.9983 976.2467,320.7642 C979.4228,316.0114 982.6758,315.1774 986.9046,319.5323 C989.0743,313.3747 995.3645,310.6359 1000.1821,316.642 C1002.6945,311.2801 1006.7686,309.3518 1011.4645,314.2381 C1016.769,309.9565 1020.0609,311.2079 1022.305,317.4044 C1026.5786,312.1513 1030.8676,313.537 1033.9586,318.7244 C1039.9515,314.1403 1044.3293,314.0027 1047.1126,322.0633 C1051.4755,317.688 1055.6639,319.1785 1057.5097,324.706 C1064.6132,325.5337 1065.8428,330.1516 1062.0771,335.5552 C1068.6895,338.4413 1069.7174,344.5141 1064.292,349.3352 C1068.6735,354.1405 1067.417,358.4196 1061.6897,360.9625 C1065.486,366.1001 1064.6224,371.6929 1057.3712,372.8004 C1055.1447,379.0673 1049.9203,380.4177 1045.1913,375.534 C1042.7994,381.2887 1039.4456,382.307 1034.7314,377.932 C1032.1349,384.3858 1025.8944,383.8281 1022.3044,379.0292 C1020.1332,385.368 1015.3737,387.4192 1010.2428,382.0883 C1006.5553,387.3023 1000.8102,386.6831 998.6195,380.5545 C993.156,384.4222 990.1314,382.8879 988.0385,376.9262 C983.6736,382.185 980.0307,382.1601 976.4772,376.0977 C972.3412,380.0741 966.8915,379.1054 965.5245,373.0688 C958.2434,372.6854 956.3885,367.2452 960.6947,361.8662 C953.4056,360.6141 950.9302,354.0681 956.1933,348.5673 C951.3126,343.7141 953.2149,337.6156 959.447,335.5373 C956.0034,329.2656 958.135,324.6389 965.6839,324.6839 " fill="#F1F1F1" style="stroke:#181818;stroke-width:0.5;"/><text fill="#000000" font-family="sans-serif" font-size="14" lengthAdjust="spacing" textLength="79.3584" x="970.5" y="344.6426">ESP32-CAM</text><text fill="#000000" font-family="sans-serif" font-size="14" lengthAdjust="spacing" textLength="62.2412" x="970.5" y="362.252">(red local)</text></g><!--link pg_svc to v_pg--><g id="link_pg_svc_v_pg"><path d="M555.2,736.3994 C556.12,756.9494 557.4,806.4994 558.4,828.9694 " fill="none" id="pg_svc-v_pg" style="stroke:#181818;stroke-width:1;"/></g><!--link mq_svc to v_mq--><g id="link_mq_svc_v_mq"><path d="M777,745.1694 C777,764.5494 777,809.4794 777,828.8894 " fill="none" id="mq_svc-v_mq" style="stroke:#181818;stroke-width:1;"/></g><!--link be_svc to v_be--><g id="link_be_svc_v_be"><path d="M378,540.1794 C378,574.3194 378,654.7194 378,692.8194 " fill="none" id="be_svc-v_be" style="stroke:#181818;stroke-width:1;"/></g><!--link fe_svc to v_fe--><g id="link_fe_svc_v_fe"><path d="M185.77,375.1794 C180.25,385.6594 174.78,398.0694 172,410.1094 C167.04,431.5794 167.4,477.2794 169.07,496.9394 " fill="none" id="fe_svc-v_fe" style="stroke:#181818;stroke-width:1;"/></g><!--link be_svc to pg_svc--><g id="link_be_svc_pg_svc"><path d="M402.1,540.1794 C435.71,577.2294 492.2681,639.566 525.8781,676.606 " fill="none" id="be_svc-to-pg_svc" style="stroke:#181818;stroke-width:1;"/><polygon fill="#181818" points="529.91,681.0494,526.8244,671.6964,526.5501,677.3466,520.8999,677.0722,529.91,681.0494" style="stroke:#181818;stroke-width:1;"/><text fill="#000000" font-family="sans-serif" font-size="13" lengthAdjust="spacing" textLength="71.5698" x="482.5105" y="595.6045">depends_on</text><text fill="#000000" font-family="sans-serif" font-size="13" lengthAdjust="spacing" textLength="102.5908" x="467" y="611.9561">DATABASE_URL</text></g><!--link be_svc to mq_svc--><g id="link_be_svc_mq_svc"><path d="M444.42,531.6394 C484.11,543.4794 535.02,560.5694 578,581.1094 C631.93,606.8894 684.159,640.9623 723.309,668.4423 " fill="none" id="be_svc-to-mq_svc" style="stroke:#181818;stroke-width:1;"/><polygon fill="#181818" points="728.22,671.8894,723.1516,663.4448,724.1275,669.0168,718.5555,669.9927,728.22,671.8894" style="stroke:#181818;stroke-width:1;"/><text fill="#000000" font-family="sans-serif" font-size="13" lengthAdjust="spacing" textLength="71.5698" x="654.6919" y="595.6045">depends_on</text><text fill="#000000" font-family="sans-serif" font-size="13" lengthAdjust="spacing" textLength="98.9536" x="641" y="611.9561">MQTT_BROKER</text></g><!--link fe_svc to be_svc--><g id="link_fe_svc_be_svc"><path d="M195.23,375.2994 C192.59,392.3894 192.67,413.9394 205,428.1094 C218.34,443.4294 230.95,429.0594 250,436.1094 C282.67,448.1994 311.4855,465.1895 336.1555,481.7195 " fill="none" id="fe_svc-to-be_svc" style="stroke:#181818;stroke-width:1;"/><polygon fill="#181818" points="341.14,485.0594,335.8898,476.7266,336.9862,482.2762,331.4367,483.3726,341.14,485.0594" style="stroke:#181818;stroke-width:1;"/><text fill="#000000" font-family="sans-serif" font-size="13" lengthAdjust="spacing" textLength="150.2808" x="206" y="424.6045">NEXT_PUBLIC_API_URL</text></g><!--link Cliente to fe_svc--><g id="link_Cliente_fe_svc"><path d="M278.91,122.2794 C260.44,176.1694 229.1164,267.5239 213.0764,314.2939 " fill="none" id="Cliente-to-fe_svc" style="stroke:#181818;stroke-width:1;stroke-dasharray:7.0,7.0;"/><polygon fill="#181818" points="211.13,319.9694,217.8333,312.7537,212.752,315.2398,210.266,310.1585,211.13,319.9694" style="stroke:#181818;stroke-width:1;"/><text fill="#000000" font-family="sans-serif" font-size="13" lengthAdjust="spacing" textLength="32.5317" x="268" y="166.6045">:3000</text></g><!--link Cliente to be_svc--><g id="link_Cliente_be_svc"><path d="M301.9,122.1394 C304.33,131.8894 306.85,142.3694 309,152.1094 C336.33,275.9194 361.9394,419.1685 372.3694,478.9885 " fill="none" id="Cliente-to-be_svc" style="stroke:#181818;stroke-width:1;stroke-dasharray:7.0,7.0;"/><polygon fill="#181818" points="373.4,484.8994,375.7947,475.3461,372.5412,479.9737,367.9136,476.7202,373.4,484.8994" style="stroke:#181818;stroke-width:1;"/><text fill="#000000" font-family="sans-serif" font-size="13" lengthAdjust="spacing" textLength="111.998" x="355" y="353.1045">:5000  (API directa)</text></g><!--link ESP to mq_svc--><g id="link_ESP_mq_svc"><path d="M989.53,380.1494 C946.22,446.8794 848.8468,596.9167 803.3368,667.0267 " fill="none" id="ESP-to-mq_svc" style="stroke:#181818;stroke-width:1;stroke-dasharray:7.0,7.0;"/><polygon fill="#181818" points="800.07,672.0594,808.3254,666.6882,802.7924,667.8655,801.6151,662.3325,800.07,672.0594" style="stroke:#181818;stroke-width:1;"/><text fill="#000000" font-family="sans-serif" font-size="13" lengthAdjust="spacing" textLength="86.0171" x="954" y="518.1045">pub/sub  :1884</text></g><!--link ESP to be_svc--><g id="link_ESP_be_svc"><path d="M955.43,359.6494 C899.21,371.2594 809.14,390.5394 732,410.1094 C630.99,435.7394 520.8334,468.1435 449.9634,489.5635 " fill="none" id="ESP-to-be_svc" style="stroke:#181818;stroke-width:1;stroke-dasharray:7.0,7.0;"/><polygon fill="#181818" points="444.22,491.2994,453.9924,492.5244,449.0062,489.8528,451.6778,484.8666,444.22,491.2994" style="stroke:#181818;stroke-width:1;"/><text fill="#000000" font-family="sans-serif" font-size="13" lengthAdjust="spacing" textLength="73.6963" x="733" y="424.6045">HTTP  :5000</text></g><!--SRC=[XPJVRjem5CRl_HH7kGAj_2kjrEK22IXTgvME0jLsWHGvoKcQuTWXTkYc2caFiIVSaymuJWORwhWYzlTzvtTExAX4COHhb1bBC2xqNn6iCOTVFtw2GePK9b9v7DMBoDU4o7N2CvhJ5EGp3SLBmcE8A9Dui1E8D1CSkLgexpexnq1H7ZCaX0PAvE2CTIck43wZxm2LO9z9m4GHWZDPpFhdhV5mkkAD74DW8g2iQPHwYn0kGWJdLaW5eO5jcOeI7NWb123I45hm3pr0my-JCCQc5GAKKTghuXobsxiqLMOVz3wONzqBEBDIjNYyNt7tyg9_RhHPxCbjODMHOA6UdRCLh4YHkojUHNiXLTGOjbuMMtdfXLRhp-Bka0i3bcGIMwcGco9HIfY0wUDoUOflMgaqNk_gwW8QUsLJFxtlTdlGqDDUxCUbob6ccpV1wvgTrq3mA8dFzXsSCH7lR1lfnfhBfB8DktZKXazrLHv2uuPHkIwhZoQdMZ02U0SPVHQjTAFKVjBTRjTOV7mJkDsnTTmEpJBBwAFLb-QIqIuUCKQvq2Tm3_c0trJxgomnRqvYMec6wrTmqV_WgWA7T5555ntGHKTqDVUWEYqkX9Zf8Ea9lkBNm-LmD5nClAVv_Ty6-rwE3VipuOtcdpvEvkIezA2okl0m-RBqPa-Z-xknDvpTsUmTqKpLrMst1vNL1JE6ewqwohm-VV5q38I9-HGqYRx5HbK3PeNVaOKFO0vklL-dt2wNCoYpo6y0]--></g></svg>