<svg xmlns="http://www.w3.org/2000/svg" xmlns:xlink="http://www.w3.org/1999/xlink" contentStyleType="text/css" height="1736px" preserveAspectRatio="none" style="width:1087px;height:1736px;background:#FFFFFF;" version="1.1" viewBox="0 0 1087 1736" width="1087px" zoomAndPan="magnify"><title>Enrolamiento biom&#233;trico completo</title><defs/><g><text fill="#000000" font-family="sans-serif" font-size="14" font-weight="bold" lengthAdjust="spacing" textLength="231.0273" x="424.0637" y="29.5332">Enrolamiento biom&#233;trico completo</text><rect fill="none" height="520.1641" style="stroke:#000000;stroke-width:1.5;" width="940.1001" x="130.0547" y="1086.7656"/><rect fill="none" height="127.5938" style="stroke:#000000;stroke-width:1.5;" width="525.1064" x="296.8433" y="1185.8203"/><line style="stroke:#181818;stroke-width:0.5;stroke-dasharray:5.0,5.0;" x1="67" x2="67" y1="121.2188" y2="1654.2813"/><line style="stroke:#181818;stroke-width:0.5;stroke-dasharray:5.0,5.0;" x1="176.0547" x2="176.0547" y1="121.2188" y2="1654.2813"/><line style="stroke:#181818;stroke-width:0.5;stroke-dasharray:5.0,5.0;" x1="367.8433" x2="367.8433" y1="121.2188" y2="1654.2813"/><line style="stroke:#181818;stroke-width:0.5;stroke-dasharray:5.0,5.0;" x1="602.8979" x2="602.8979" y1="121.2188" y2="1654.2813"/><line style="stroke:#181818;stroke-width:0.5;stroke-dasharray:5.0,5.0;" x1="738.6772" x2="738.6772" y1="121.2188" y2="1654.2813"/><line style="stroke:#181818;stroke-width:0.5;stroke-dasharray:5.0,5.0;" x1="1018.8931" x2="1018.8931" y1="121.2188" y2="1654.2813"/><text fill="#000000" font-family="sans-serif" font-size="14" lengthAdjust="spacing" textLength="119.0547" x="5" y="118.1426">Admin / Empleador</text><ellipse cx="67.5273" cy="52.1094" fill="#E2E2F0" rx="8" ry="8" style="stroke:#181818;stroke-width:0.5;"/><path d="M67.5273,60.1094 L67.5273,87.1094 M54.5273,68.1094 L80.5273,68.1094 M67.5273,87.1094 L54.5273,102.1094 M67.5273,87.1094 L80.5273,102.1094 " fill="none" style="stroke:#181818;stroke-width:0.5;"/><text fill="#000000" font-family="sans-serif" font-size="14" lengthAdjust="spacing" textLength="119.0547" x="5" y="1667.8145">Admin / Empleador</text><ellipse cx="67.5273" cy="1679.3906" fill="#E2E2F0" rx="8" ry="8" style="stroke:#181818;stroke-width:0.5;"/><path d="M67.5273,1687.3906 L67.5273,1714.3906 M54.5273,1695.3906 L80.5273,1695.3906 M67.5273,1714.3906 L54.5273,1729.3906 M67.5273,1714.3906 L80.5273,1729.3906 " fill="none" style="stroke:#181818;stroke-width:0.5;"/><text fill="#000000" font-family="sans-serif" font-size="14" lengthAdjust="spacing" textLength="67.7031" x="140.0547" y="118.1426">Trabajador</text><ellipse cx="176.9063" cy="52.1094" fill="#E2E2F0" rx="8" ry="8" style="stroke:#181818;stroke-width:0.5;"/><path d="M176.9063,60.1094 L176.9063,87.1094 M163.9063,68.1094 L189.9063,68.1094 M176.9063,87.1094 L163.9063,102.1094 M176.9063,87.1094 L189.9063,102.1094 " fill="none" style="stroke:#181818;stroke-width:0.5;"/><text fill="#000000" font-family="sans-serif" font-size="14" lengthAdjust="spacing" textLength="67.7031" x="140.0547" y="1667.8145">Trabajador</text><ellipse cx="176.9063" cy="1679.3906" fill="#E2E2F0" rx="8" ry="8" style="stroke:#181818;stroke-width:0.5;"/><path d="M176.9063,1687.3906 L176.9063,1714.3906 M163.9063,1695.3906 L189.9063,1695.3906 M176.9063,1714.3906 L163.9063,1729.3906 M176.9063,1714.3906 L189.9063,1729.3906 " fill="none" style="stroke:#181818;stroke-width:0.5;"/><rect fill="#E2E2F0" height="31.6094" rx="2.5" ry="2.5" style="stroke:#181818;stroke-width:0.5;" width="93.3584" x="321.8433" y="88.6094"/><text fill="#000000" font-family="sans-serif" font-size="14" lengthAdjust="spacing" textLength="79.3584" x="328.8433" y="110.1426">ESP32-CAM</text><rect fill="#E2E2F0" height="31.6094" rx="2.5" ry="2.5" style="stroke:#181818;stroke-width:0.5;" width="93.3584" x="321.8433" y="1653.2813"/><text fill="#000000" font-family="sans-serif" font-size="14" lengthAdjust="spacing" textLength="79.3584" x="328.8433" y="1674.8145">ESP32-CAM</text><path d="M555.8979,76 L650.6772,76 C655.6772,76 655.6772,98.6094 655.6772,98.6094 C655.6772,98.6094 655.6772,121.2188 650.6772,121.2188 L555.8979,121.2188 C550.8979,121.2188 550.8979,98.6094 550.8979,98.6094 C550.8979,98.6094 550.8979,76 555.8979,76 " fill="#E2E2F0" style="stroke:#181818;stroke-width:0.5;"/><path d="M650.6772,76 C645.6772,76 645.6772,98.6094 645.6772,98.6094 C645.6772,121.2188 650.6772,121.2188 650.6772,121.2188 " fill="none" style="stroke:#181818;stroke-width:0.5;"/><text fill="#000000" font-family="sans-serif" font-size="14" lengthAdjust="spacing" textLength="84.7793" x="555.8979" y="95.5332">MQTT Broker</text><text fill="#000000" font-family="sans-serif" font-size="14" lengthAdjust="spacing" textLength="70.0205" x="563.2773" y="113.1426">(Mosquitto)</text><path d="M555.8979,1653.2813 L650.6772,1653.2813 C655.6772,1653.2813 655.6772,1675.8906 655.6772,1675.8906 C655.6772,1675.8906 655.6772,1698.5 650.6772,1698.5 L555.8979,1698.5 C550.8979,1698.5 550.8979,1675.8906 550.8979,1675.8906 C550.8979,1675.8906 550.8979,1653.2813 555.8979,1653.2813 " fill="#E2E2F0" style="stroke:#181818;stroke-width:0.5;"/><path d="M650.6772,1653.2813 C645.6772,1653.2813 645.6772,1675.8906 645.6772,1675.8906 C645.6772,1698.5 650.6772,1698.5 650.6772,1698.5 " fill="none" style="stroke:#181818;stroke-width:0.5;"/><text fill="#000000" font-family="sans-serif" font-size="14" lengthAdjust="spacing" textLength="84.7793" x="555.8979" y="1672.8145">MQTT Broker</text><text fill="#000000" font-family="sans-serif" font-size="14" lengthAdjust="spacing" textLength="70.0205" x="563.2773" y="1690.4238">(Mosquitto)</text><rect fill="#E2E2F0" height="49.2188" rx="2.5" ry="2.5" style="stroke:#181818;stroke-width:0.5;" width="116.2725" x="680.6772" y="71"/><text fill="#000000" font-family="sans-serif" font-size="14" lengthAdjust="spacing" textLength="91.8203" x="692.9033" y="92.5332">Backend Flask</text><text fill="#000000" font-family="sans-serif" font-size="14" lengthAdjust="spacing" textLength="102.2725" x="687.6772" y="110.1426">(REST + MQTT)</text><rect fill="#E2E2F0" height="49.2188" rx="2.5" ry="2.5" style="stroke:#181818;stroke-width:0.5;" width="116.2725" x="680.6772" y="1653.2813"/><text fill="#000000" font-family="sans-serif" font-size="14" lengthAdjust="spacing" textLength="91.8203" x="692.9033" y="1674.8145">Backend Flask</text><text fill="#000000" font-family="sans-serif" font-size="14" lengthAdjust="spacing" textLength="102.2725" x="687.6772" y="1692.4238">(REST + MQTT)</text><text fill="#000000" font-family="sans-serif" font-size="14" lengthAdjust="spacing" textLength="76.2617" x="977.8931" y="118.1426">PostgreSQL</text><path d="M1001.0239,67.6094 C1001.0239,57.6094 1019.0239,57.6094 1019.0239,57.6094 C1019.0239,57.6094 1037.0239,57.6094 1037.0239,67.6094 L1037.0239,93.6094 C1037.0239,103.6094 1019.0239,103.6094 1019.0239,103.6094 C1019.0239,103.6094 1001.0239,103.6094 1001.0239,93.6094 L1001.0239,67.6094 " fill="#E2E2F0" style="stroke:#181818;stroke-width:1.5;"/><path d="M1001.0239,67.6094 C1001.0239,77.6094 1019.0239,77.6094 1019.0239,77.6094 C1019.0239,77.6094 1037.0239,77.6094 1037.0239,67.6094 " fill="none" style="stroke:#181818;stroke-width:1.5;"/><text fill="#000000" font-family="sans-serif" font-size="14" lengthAdjust="spacing" textLength="76.2617" x="977.8931" y="1667.8145">PostgreSQL</text><path d="M1001.0239,1680.8906 C1001.0239,1670.8906 1019.0239,1670.8906 1019.0239,1670.8906 C1019.0239,1670.8906 1037.0239,1670.8906 1037.0239,1680.8906 L1037.0239,1706.8906 C1037.0239,1716.8906 1019.0239,1716.8906 1019.0239,1716.8906 C1019.0239,1716.8906 1001.0239,1716.8906 1001.0239,1706.8906 L1001.0239,1680.8906 " fill="#E2E2F0" style="stroke:#181818;stroke-width:1.5;"/><path d="M1001.0239,1680.8906 C1001.0239,1690.8906 1019.0239,1690.8906 1019.0239,1690.8906 C1019.0239,1690.8906 1037.0239,1690.8906 1037.0239,1680.8906 " fill="none" style="stroke:#181818;stroke-width:1.5;"/><rect fill="#EEEEEE" height="3" style="stroke:#EEEEEE;stroke-width:1;" width="1080.1548" x="0" y="152.3945"/><line style="stroke:#000000;stroke-width:1;" x1="0" x2="1080.1548" y1="152.3945" y2="152.3945"/><line style="stroke:#000000;stroke-width:1;" x1="0" x2="1080.1548" y1="155.3945" y2="155.3945"/><rect fill="#EEEEEE" height="24.3516" style="stroke:#000000;stroke-width:2;" width="255.2554" x="412.4497" y="141.2188"/><text fill="#000000" font-family="sans-serif" font-size="13" font-weight="bold" lengthAdjust="spacing" textLength="237.6436" x="418.4497" y="158.7139">Enrolamiento del dispositivo (una vez)</text><polygon fill="#181818" points="726.8135,193.9219,736.8135,197.9219,726.8135,201.9219,730.8135,197.9219" style="stroke:#181818;stroke-width:1;"/><line style="stroke:#181818;stroke-width:1;" x1="67.5273" x2="732.8135" y1="197.9219" y2="197.9219"/><text fill="#000000" font-family="sans-serif" font-size="13" lengthAdjust="spacing" textLength="229.7852" x="288.2778" y="193.0654">POST /api/auth/dispositivos/generar-pin</text><polygon fill="#181818" points="1007.0239,240.625,1017.0239,244.625,1007.0239,248.625,1011.0239,244.625" style="stroke:#181818;stroke-width:1;"/><line style="stroke:#181818;stroke-width:1;" x1="738.8135" x2="1013.0239" y1="244.625" y2="244.625"/><text fill="#000000" font-family="sans-serif" font-size="13" lengthAdjust="spacing" textLength="222.9043" x="767.4666" y="223.417">INSERT dispositivo (enrolado=FALSE,</text><text fill="#000000" font-family="sans-serif" font-size="13" lengthAdjust="spacing" textLength="198.3643" x="779.7366" y="239.7686">codigo_enrol=&lt;PIN 8 caracteres&gt;)</text><polygon fill="#181818" points="78.5273,270.9766,68.5273,274.9766,78.5273,278.9766,74.5273,274.9766" style="stroke:#181818;stroke-width:1;"/><line style="stroke:#181818;stroke-width:1;stroke-dasharray:2.0,2.0;" x1="72.5273" x2="737.8135" y1="274.9766" y2="274.9766"/><text fill="#000000" font-family="sans-serif" font-size="13" lengthAdjust="spacing" textLength="21.6709" x="392.335" y="270.1201">PIN</text><polygon fill="#181818" points="356.5225,301.3281,366.5225,305.3281,356.5225,309.3281,360.5225,305.3281" style="stroke:#181818;stroke-width:1;"/><line style="stroke:#181818;stroke-width:1;" x1="67.5273" x2="362.5225" y1="305.3281" y2="305.3281"/><text fill="#000000" font-family="sans-serif" font-size="13" lengthAdjust="spacing" textLength="231.1943" x="102.4277" y="300.4717">ingresa PIN (panel Wi-Fi del dispositivo)</text><polygon fill="#181818" points="726.8135,348.0313,736.8135,352.0313,726.8135,356.0313,730.8135,352.0313" style="stroke:#181818;stroke-width:1;"/><line style="stroke:#181818;stroke-width:1;" x1="368.5225" x2="732.8135" y1="352.0313" y2="352.0313"/><text fill="#000000" font-family="sans-serif" font-size="13" lengthAdjust="spacing" textLength="203.7661" x="451.7849" y="330.8232">POST /api/auth/dispositivos/enrolar</text><text fill="#000000" font-family="sans-serif" font-size="13" lengthAdjust="spacing" textLength="57.8145" x="524.7607" y="347.1748">{pin, mac}</text><polygon fill="#181818" points="1007.0239,394.7344,1017.0239,398.7344,1007.0239,402.7344,1011.0239,398.7344" style="stroke:#181818;stroke-width:1;"/><line style="stroke:#181818;stroke-width:1;" x1="738.8135" x2="1013.0239" y1="398.7344" y2="398.7344"/><text fill="#000000" font-family="sans-serif" font-size="13" lengthAdjust="spacing" textLength="246.7334" x="755.552" y="377.5264">UPDATE dispositivo SET enrolado=TRUE,</text><text fill="#000000" font-family="sans-serif" font-size="13" lengthAdjust="spacing" textLength="125.3726" x="816.2324" y="393.8779">mac_address=&lt;mac&gt;</text><polygon fill="#181818" points="379.5225,425.0859,369.5225,429.0859,379.5225,433.0859,375.5225,429.0859" style="stroke:#181818;stroke-width:1;"/><line style="stroke:#181818;stroke-width:1;stroke-dasharray:2.0,2.0;" x1="373.5225" x2="737.8135" y1="429.0859" y2="429.0859"/><text fill="#000000" font-family="sans-serif" font-size="13" lengthAdjust="spacing" textLength="44.0845" x="531.6257" y="424.2295">200 OK</text><path d="M231,442.0859 L231,468.0859 L504,468.0859 L504,452.0859 L494,442.0859 L231,442.0859 " fill="#FEFFDD" style="stroke:#181818;stroke-width:0.5;"/><path d="M494,442.0859 L494,452.0859 L504,452.0859 L494,442.0859 " fill="#FEFFDD" style="stroke:#181818;stroke-width:0.5;"/><text fill="#000000" font-family="sans-serif" font-size="13" lengthAdjust="spacing" textLength="252.5479" x="237" y="460.5811">isCloudReady() = isOnline &amp;&amp; estaEnrolado</text><rect fill="#EEEEEE" height="3" style="stroke:#EEEEEE;stroke-width:1;" width="1080.1548" x="0" y="494.6133"/><line style="stroke:#000000;stroke-width:1;" x1="0" x2="1080.1548" y1="494.6133" y2="494.6133"/><line style="stroke:#000000;stroke-width:1;" x1="0" x2="1080.1548" y1="497.6133" y2="497.6133"/><rect fill="#EEEEEE" height="24.3516" style="stroke:#000000;stroke-width:2;" width="256.728" x="411.7134" y="483.4375"/><text fill="#000000" font-family="sans-serif" font-size="13" font-weight="bold" lengthAdjust="spacing" textLength="239.1162" x="417.7134" y="500.9326">Creaci&#243;n de persona y consentimiento</text><polygon fill="#181818" points="726.8135,536.1406,736.8135,540.1406,726.8135,544.1406,730.8135,540.1406" style="stroke:#181818;stroke-width:1;"/><line style="stroke:#181818;stroke-width:1;" x1="67.5273" x2="732.8135" y1="540.1406" y2="540.1406"/><text fill="#000000" font-family="sans-serif" font-size="13" lengthAdjust="spacing" textLength="195.8252" x="305.2578" y="535.2842">POST /api/personas {rut, nombre}</text><polygon fill="#181818" points="1007.0239,566.4922,1017.0239,570.4922,1007.0239,574.4922,1011.0239,570.4922" style="stroke:#181818;stroke-width:1;"/><line style="stroke:#181818;stroke-width:1;" x1="738.8135" x2="1013.0239" y1="570.4922" y2="570.4922"/><text fill="#000000" font-family="sans-serif" font-size="13" lengthAdjust="spacing" textLength="98.2617" x="829.7878" y="565.6357">INSERT persona</text><polygon fill="#181818" points="749.8135,596.8438,739.8135,600.8438,749.8135,604.8438,745.8135,600.8438" style="stroke:#181818;stroke-width:1;"/><line style="stroke:#181818;stroke-width:1;stroke-dasharray:2.0,2.0;" x1="743.8135" x2="1018.0239" y1="600.8438" y2="600.8438"/><text fill="#000000" font-family="sans-serif" font-size="13" lengthAdjust="spacing" textLength="64.3271" x="846.7551" y="595.9873">persona_id</text><polygon fill="#181818" points="78.5273,627.1953,68.5273,631.1953,78.5273,635.1953,74.5273,631.1953" style="stroke:#181818;stroke-width:1;"/><line style="stroke:#181818;stroke-width:1;stroke-dasharray:2.0,2.0;" x1="72.5273" x2="737.8135" y1="631.1953" y2="631.1953"/><text fill="#000000" font-family="sans-serif" font-size="13" lengthAdjust="spacing" textLength="71.5508" x="367.395" y="626.3389">201 Created</text><polygon fill="#181818" points="726.8135,657.5469,736.8135,661.5469,726.8135,665.5469,730.8135,661.5469" style="stroke:#181818;stroke-width:1;"/><line style="stroke:#181818;stroke-width:1;" x1="67.5273" x2="732.8135" y1="661.5469" y2="661.5469"/><text fill="#000000" font-family="sans-serif" font-size="13" lengthAdjust="spacing" textLength="237.0215" x="284.6597" y="656.6904">POST /api/personas/&lt;id&gt;/consentimiento</text><polygon fill="#181818" points="1007.0239,687.8984,1017.0239,691.8984,1007.0239,695.8984,1011.0239,691.8984" style="stroke:#181818;stroke-width:1;"/><line style="stroke:#181818;stroke-width:1;" x1="738.8135" x2="1013.0239" y1="691.8984" y2="691.8984"/><text fill="#000000" font-family="sans-serif" font-size="13" lengthAdjust="spacing" textLength="221.8188" x="768.0093" y="687.042">INSERT consentimientos (persona_id)</text><path d="M130,704.8984 L130,730.8984 L415,730.8984 L415,714.8984 L405,704.8984 L130,704.8984 " fill="#FEFFDD" style="stroke:#181818;stroke-width:0.5;"/><path d="M405,704.8984 L405,714.8984 L415,714.8984 L405,704.8984 " fill="#FEFFDD" style="stroke:#181818;stroke-width:0.5;"/><text fill="#000000" font-family="sans-serif" font-size="13" lengthAdjust="spacing" textLength="260.146" x="138.0005" y="723.3936">Trabajador acude al dispositivo (ya enrolado)</text><rect fill="#EEEEEE" height="3" style="stroke:#EEEEEE;stroke-width:1;" width="1080.1548" x="0" y="757.4258"/><line style="stroke:#000000;stroke-width:1;" x1="0" x2="1080.1548" y1="757.4258" y2="757.4258"/><line style="stroke:#000000;stroke-width:1;" x1="0" x2="1080.1548" y1="760.4258" y2="760.4258"/><rect fill="#EEEEEE" height="24.3516" style="stroke:#000000;stroke-width:2;" width="237.958" x="421.0984" y="746.25"/><text fill="#000000" font-family="sans-serif" font-size="13" font-weight="bold" lengthAdjust="spacing" textLength="220.3462" x="427.0984" y="763.7451">Registro de huella (AS608, 2 pasos)</text><polygon fill="#181818" points="356.5225,798.9531,366.5225,802.9531,356.5225,806.9531,360.5225,802.9531" style="stroke:#181818;stroke-width:1;"/><line style="stroke:#181818;stroke-width:1;" x1="176.9063" x2="362.5225" y1="802.9531" y2="802.9531"/><text fill="#000000" font-family="sans-serif" font-size="13" lengthAdjust="spacing" textLength="167.6162" x="188.9063" y="798.0967">Iniciar registro (UI embebida)</text><polygon fill="#181818" points="187.9063,829.3047,177.9063,833.3047,187.9063,837.3047,183.9063,833.3047" style="stroke:#181818;stroke-width:1;"/><line style="stroke:#181818;stroke-width:1;" x1="181.9063" x2="367.5225" y1="833.3047" y2="833.3047"/><text fill="#000000" font-family="sans-serif" font-size="13" lengthAdjust="spacing" textLength="120.5293" x="212.4497" y="828.4482">"Coloque dedo (1/2)"</text><polygon fill="#181818" points="356.5225,859.6563,366.5225,863.6563,356.5225,867.6563,360.5225,863.6563" style="stroke:#181818;stroke-width:1;"/><line style="stroke:#181818;stroke-width:1;" x1="176.9063" x2="362.5225" y1="863.6563" y2="863.6563"/><text fill="#000000" font-family="sans-serif" font-size="13" lengthAdjust="spacing" textLength="96.1289" x="224.6499" y="858.7998">huella capturada</text><line style="stroke:#181818;stroke-width:1;" x1="368.5225" x2="410.5225" y1="894.0078" y2="894.0078"/><line style="stroke:#181818;stroke-width:1;" x1="410.5225" x2="410.5225" y1="894.0078" y2="907.0078"/><line style="stroke:#181818;stroke-width:1;" x1="369.5225" x2="410.5225" y1="907.0078" y2="907.0078"/><polygon fill="#181818" points="379.5225,903.0078,369.5225,907.0078,379.5225,911.0078,375.5225,907.0078" style="stroke:#181818;stroke-width:1;"/><text fill="#000000" font-family="sans-serif" font-size="13" lengthAdjust="spacing" textLength="140.188" x="375.5225" y="889.1514">generar template parcial</text><polygon fill="#181818" points="187.9063,933.3594,177.9063,937.3594,187.9063,941.3594,183.9063,937.3594" style="stroke:#181818;stroke-width:1;"/><line style="stroke:#181818;stroke-width:1;" x1="181.9063" x2="367.5225" y1="937.3594" y2="937.3594"/><text fill="#000000" font-family="sans-serif" font-size="13" lengthAdjust="spacing" textLength="120.5293" x="212.4497" y="932.5029">"Coloque dedo (2/2)"</text><polygon fill="#181818" points="356.5225,963.7109,366.5225,967.7109,356.5225,971.7109,360.5225,967.7109" style="stroke:#181818;stroke-width:1;"/><line style="stroke:#181818;stroke-width:1;" x1="176.9063" x2="362.5225" y1="967.7109" y2="967.7109"/><text fill="#000000" font-family="sans-serif" font-size="13" lengthAdjust="spacing" textLength="102.6162" x="221.4063" y="962.8545">huella confirmada</text><line style="stroke:#181818;stroke-width:1;" x1="368.5225" x2="410.5225" y1="1014.4141" y2="1014.4141"/><line style="stroke:#181818;stroke-width:1;" x1="410.5225" x2="410.5225" y1="1014.4141" y2="1027.4141"/><line style="stroke:#181818;stroke-width:1;" x1="369.5225" x2="410.5225" y1="1027.4141" y2="1027.4141"/><polygon fill="#181818" points="379.5225,1023.4141,369.5225,1027.4141,379.5225,1031.4141,375.5225,1027.4141" style="stroke:#181818;stroke-width:1;"/><text fill="#000000" font-family="sans-serif" font-size="13" lengthAdjust="spacing" textLength="113.4517" x="413.6528" y="993.2061">validar coincidencia</text><text fill="#000000" font-family="sans-serif" font-size="13" lengthAdjust="spacing" textLength="189.7124" x="375.5225" y="1009.5576">&#8594; guardar en slot AS608 (1-127)</text><rect fill="#EEEEEE" height="3" style="stroke:#EEEEEE;stroke-width:1;" width="1080.1548" x="0" y="1056.5898"/><line style="stroke:#000000;stroke-width:1;" x1="0" x2="1080.1548" y1="1056.5898" y2="1056.5898"/><line style="stroke:#000000;stroke-width:1;" x1="0" x2="1080.1548" y1="1059.5898" y2="1059.5898"/><rect fill="#EEEEEE" height="24.3516" style="stroke:#000000;stroke-width:2;" width="246.6226" x="416.7661" y="1045.4141"/><text fill="#000000" font-family="sans-serif" font-size="13" font-weight="bold" lengthAdjust="spacing" textLength="229.0107" x="422.7661" y="1062.9092">Registro facial (3 fotos de referencia)</text><path d="M130.0547,1086.7656 L202.4893,1086.7656 L202.4893,1095.1172 L192.4893,1105.1172 L130.0547,1105.1172 L130.0547,1086.7656 " fill="#EEEEEE" style="stroke:#000000;stroke-width:1.5;"/><rect fill="none" height="520.1641" style="stroke:#000000;stroke-width:1.5;" width="940.1001" x="130.0547" y="1086.7656"/><text fill="#000000" font-family="sans-serif" font-size="13" font-weight="bold" lengthAdjust="spacing" textLength="27.4346" x="145.0547" y="1101.2607">loop</text><text fill="#000000" font-family="sans-serif" font-size="11" font-weight="bold" lengthAdjust="spacing" textLength="125.0015" x="217.4893" y="1100.1846">[x3 (frontal + 2 perfiles)]</text><polygon fill="#181818" points="187.9063,1123.4688,177.9063,1127.4688,187.9063,1131.4688,183.9063,1127.4688" style="stroke:#181818;stroke-width:1;"/><line style="stroke:#181818;stroke-width:1;" x1="181.9063" x2="367.5225" y1="1127.4688" y2="1127.4688"/><text fill="#000000" font-family="sans-serif" font-size="13" lengthAdjust="spacing" textLength="106.0376" x="219.6956" y="1122.6123">"Mire a la c&#225;mara"</text><line style="stroke:#181818;stroke-width:1;" x1="368.5225" x2="410.5225" y1="1157.8203" y2="1157.8203"/><line style="stroke:#181818;stroke-width:1;" x1="410.5225" x2="410.5225" y1="1157.8203" y2="1170.8203"/><line style="stroke:#181818;stroke-width:1;" x1="369.5225" x2="410.5225" y1="1170.8203" y2="1170.8203"/><polygon fill="#181818" points="379.5225,1166.8203,369.5225,1170.8203,379.5225,1174.8203,375.5225,1170.8203" style="stroke:#181818;stroke-width:1;"/><text fill="#000000" font-family="sans-serif" font-size="13" lengthAdjust="spacing" textLength="220.7651" x="375.5225" y="1152.9639">capturar imagen (OV2640, quality=10)</text><path d="M296.8433,1185.8203 L357.0142,1185.8203 L357.0142,1194.1719 L347.0142,1204.1719 L296.8433,1204.1719 L296.8433,1185.8203 " fill="#EEEEEE" style="stroke:#000000;stroke-width:1.5;"/><rect fill="none" height="127.5938" style="stroke:#000000;stroke-width:1.5;" width="525.1064" x="296.8433" y="1185.8203"/><text fill="#000000" font-family="sans-serif" font-size="13" font-weight="bold" lengthAdjust="spacing" textLength="15.1709" x="311.8433" y="1200.3154">alt</text><text fill="#000000" font-family="sans-serif" font-size="11" font-weight="bold" lengthAdjust="spacing" textLength="71.5" x="372.0142" y="1199.2393">[primera foto]</text><polygon fill="#181818" points="726.8135,1238.875,736.8135,1242.875,726.8135,1246.875,730.8135,1242.875" style="stroke:#181818;stroke-width:1;"/><line style="stroke:#181818;stroke-width:1;" x1="368.5225" x2="732.8135" y1="1242.875" y2="1242.875"/><text fill="#000000" font-family="sans-serif" font-size="13" lengthAdjust="spacing" textLength="145.2153" x="481.0603" y="1221.667">POST /api/facial/registrar</text><text fill="#000000" font-family="sans-serif" font-size="13" lengthAdjust="spacing" textLength="217.0898" x="445.123" y="1238.0186">octet-stream (JPEG) + header X-RUT</text><line style="stroke:#000000;stroke-width:1;stroke-dasharray:2.0,2.0;" x1="296.8433" x2="821.9497" y1="1251.875" y2="1251.875"/><text fill="#000000" font-family="sans-serif" font-size="11" font-weight="bold" lengthAdjust="spacing" textLength="97.1792" x="301.8433" y="1263.2939">[fotos adicionales]</text><polygon fill="#181818" points="726.8135,1301.4141,736.8135,1305.4141,726.8135,1309.4141,730.8135,1305.4141" style="stroke:#181818;stroke-width:1;"/><line style="stroke:#181818;stroke-width:1;" x1="368.5225" x2="732.8135" y1="1305.4141" y2="1305.4141"/><text fill="#000000" font-family="sans-serif" font-size="13" lengthAdjust="spacing" textLength="168.3589" x="469.4885" y="1284.2061">POST /api/facial/agregar-foto</text><text fill="#000000" font-family="sans-serif" font-size="13" lengthAdjust="spacing" textLength="217.0898" x="445.123" y="1300.5576">octet-stream (JPEG) + header X-RUT</text><line style="stroke:#181818;stroke-width:1;" x1="738.8135" x2="780.8135" y1="1359.1172" y2="1359.1172"/><line style="stroke:#181818;stroke-width:1;" x1="780.8135" x2="780.8135" y1="1359.1172" y2="1372.1172"/><line style="stroke:#181818;stroke-width:1;" x1="739.8135" x2="780.8135" y1="1372.1172" y2="1372.1172"/><polygon fill="#181818" points="749.8135,1368.1172,739.8135,1372.1172,749.8135,1376.1172,745.8135,1372.1172" style="stroke:#181818;stroke-width:1;"/><text fill="#000000" font-family="sans-serif" font-size="13" lengthAdjust="spacing" textLength="143.8062" x="745.8135" y="1337.9092">filtro varianza Laplaciano</text><text fill="#000000" font-family="sans-serif" font-size="13" lengthAdjust="spacing" textLength="138.0171" x="748.708" y="1354.2607">(rechaza borrosa/plana)</text><line style="stroke:#181818;stroke-width:1;" x1="738.8135" x2="780.8135" y1="1418.8203" y2="1418.8203"/><line style="stroke:#181818;stroke-width:1;" x1="780.8135" x2="780.8135" y1="1418.8203" y2="1431.8203"/><line style="stroke:#181818;stroke-width:1;" x1="739.8135" x2="780.8135" y1="1431.8203" y2="1431.8203"/><polygon fill="#181818" points="749.8135,1427.8203,739.8135,1431.8203,749.8135,1435.8203,745.8135,1431.8203" style="stroke:#181818;stroke-width:1;"/><text fill="#000000" font-family="sans-serif" font-size="13" lengthAdjust="spacing" textLength="248.5615" x="745.8135" y="1397.6123">DeepFace.represent(img, modelo Facenet)</text><text fill="#000000" font-family="sans-serif" font-size="13" lengthAdjust="spacing" textLength="108.0688" x="816.0598" y="1413.9639">&#8594; embedding[128]</text><line style="stroke:#181818;stroke-width:1;" x1="738.8135" x2="780.8135" y1="1478.5234" y2="1478.5234"/><line style="stroke:#181818;stroke-width:1;" x1="780.8135" x2="780.8135" y1="1478.5234" y2="1491.5234"/><line style="stroke:#181818;stroke-width:1;" x1="739.8135" x2="780.8135" y1="1491.5234" y2="1491.5234"/><polygon fill="#181818" points="749.8135,1487.5234,739.8135,1491.5234,749.8135,1495.5234,745.8135,1491.5234" style="stroke:#181818;stroke-width:1;"/><text fill="#000000" font-family="sans-serif" font-size="13" lengthAdjust="spacing" textLength="134.3926" x="805.7766" y="1457.3154">cifrar_embedding(emb)</text><text fill="#000000" font-family="sans-serif" font-size="13" lengthAdjust="spacing" textLength="254.3188" x="745.8135" y="1473.667">&#8594; Fernet (AES-128-CBC + HMAC-SHA256)</text><polygon fill="#181818" points="1007.0239,1534.2266,1017.0239,1538.2266,1007.0239,1542.2266,1011.0239,1538.2266" style="stroke:#181818;stroke-width:1;"/><line style="stroke:#181818;stroke-width:1;" x1="738.8135" x2="1013.0239" y1="1538.2266" y2="1538.2266"/><text fill="#000000" font-family="sans-serif" font-size="13" lengthAdjust="spacing" textLength="196.5234" x="780.657" y="1517.0186">INSERT INTO encodings_faciales</text><text fill="#000000" font-family="sans-serif" font-size="13" lengthAdjust="spacing" textLength="256.2104" x="750.8135" y="1533.3701">(persona_id, encoding=&lt;cifrado&gt;, foto_path)</text><polygon fill="#181818" points="749.8135,1564.5781,739.8135,1568.5781,749.8135,1572.5781,745.8135,1568.5781" style="stroke:#181818;stroke-width:1;"/><line style="stroke:#181818;stroke-width:1;stroke-dasharray:2.0,2.0;" x1="743.8135" x2="1018.0239" y1="1568.5781" y2="1568.5781"/><text fill="#000000" font-family="sans-serif" font-size="13" lengthAdjust="spacing" textLength="18.7827" x="869.5273" y="1563.7217">OK</text><polygon fill="#181818" points="379.5225,1594.9297,369.5225,1598.9297,379.5225,1602.9297,375.5225,1598.9297" style="stroke:#181818;stroke-width:1;"/><line style="stroke:#181818;stroke-width:1;" x1="373.5225" x2="737.8135" y1="1598.9297" y2="1598.9297"/><text fill="#000000" font-family="sans-serif" font-size="13" lengthAdjust="spacing" textLength="89.6226" x="508.8567" y="1594.0732">200 {status: ok}</text><polygon fill="#181818" points="187.9063,1632.2813,177.9063,1636.2813,187.9063,1640.2813,183.9063,1636.2813" style="stroke:#181818;stroke-width:1;"/><line style="stroke:#181818;stroke-width:1;" x1="181.9063" x2="367.5225" y1="1636.2813" y2="1636.2813"/><text fill="#000000" font-family="sans-serif" font-size="13" lengthAdjust="spacing" textLength="165.293" x="190.0679" y="1631.4248">"Registro completo (3 fotos)"</text><!--SRC=[ZLRRRY9747sVhoZni1gq432xwrYMiOGnpZhnXGMSZHH7g9XfSCSptUFk7cUzbb_p0Vc3FEOvd-0_oPVap330uCMotvZkgbDrJbqQ9rqagAUCZZYMGZbD4wdZnt-SaO6cGCT999psF7ijLSA6OxBY9XKg4AV2Mfw9JYHdYWAu2bEskk9G_o7LZAOSML6wwRDnCf09AzVdCCnCjZwKxW_qb-Lvq_CuSDfGfHF6Kb63Ubb2W3OLOalvwS9aP7Z2lo_lFcjpZPIILJYgz8RzTwrwjtEQM-HV7jYaWYgddqOZEZ0QFfVAFzNs9fNEwMfkcLsk8nrmS2rKI4SHssiu37h34RtD3USkXO4NiaDQ5X7wshgP4SDF9xd1uO7djTlhseSYeb3QH5lfvAqcFrLCj-9hbTfjRov1VNy1JRlKFqVK1YUomQcxQfHSRMCcb31iwWaKMdZ0-V00ViTdmzvWj1vAv8c4kdtKEHdsQfSgqA6SwN5-tjxh7v_H3WKeKO1A2xjVNQ42TfuSCZe-MoMQ2un3r18Ud5sI3_t0yhEi7ycdVAlUtEFL7ESves3tO5cZc8E7RxXUz0yxezuQrs5lH4kwey55nXQ-OxGTyhJjFNpihz5RC6arctJ-awUq4wHlXLbHjDr8f-40lNddermuE5UHL8BUl25X7VUAU7dHkqPm81__LL204c6iHftlC6xAeWzaqGqlrRnmj7HlKbSZfUE94G_F5Rkmzd1MNmCiBiOot5ZHLdChpzU9y7NfDFPakDzOv_9SKkjM5jsnJARgbMIU3tDjAVTgrec352Boay6vusM5gxda0p6JrfbinkWg5L74v7U6sysT6hKeOQjjFcJpGENcFLOOUZPa5W3-nJ69U28cCkHInnQUkrJfwaXZgo1I2EkjHgjQsO1R915mubB38Q-G5XR519CJM7hG7saQf1Az7BFrGaojfjB46uFUSWHU1ZPI1JB4ffTygVxxyo-QfMoo6w78HjfHhXxurRTQtp_HUCfPdkI_ewdEoWhDZPXYRMHekSwHrWbzUKV-r6ZbOFisAuCmKna9M_M8Dd0ybGQ5fep0uzynDb6bRBSWK0XgICPudXJvvp-tjjytQtIJWfgxQsyrCtoE72L6nb0uJn979R1D_JqdrIZw8Diw6glGrV4Xy6xvF_PxFrJ1umex00d_KXzSZ80gyFmLCd28La9tW-Ahmp5MvmnhF4DuRKGyEqIbYLl1GzwiFhTi9AklJ2UCpa8S1MpVYE2ASJZHncZB3LmfhZu7TIX4SiI1-Cw815iJy-lBU8ObhB7LDMLNIhZgl7UoUSdVz5-tMZk_FGSPo2bq7I-DVVmg08w40Hf6jZT4l-tKkmTT4FzuskdMXnyxhG_RJ_8iBvdZiz4vHCdUCpMpuxcmmeBnQjlKbWRjlJoDKE_NyhAD4tPN6VetYnCFmLhCyYDnZvNlKhjB-lh1omgoeP-NuxBucxKS60pl_m00]--></g></svg>