<svg xmlns="http://www.w3.org/2000/svg" xmlns:xlink="http://www.w3.org/1999/xlink" contentStyleType="text/css" height="1187px" preserveAspectRatio="none" style="width:788px;height:1187px;background:#FFFFFF;" version="1.1" viewBox="0 0 788 1187" width="788px" zoomAndPan="magnify"><title>Marcaje autom&#225;tico &#8212; centinela facial</title><defs/><g><text fill="#000000" font-family="sans-serif" font-size="14" font-weight="bold" lengthAdjust="spacing" textLength="253.3057" x="269.2888" y="29.5332">Marcaje autom&#225;tico &#8212; centinela facial</text><rect fill="none" height="966.4375" style="stroke:#000000;stroke-width:1.5;" width="772.8833" x="10" y="124.2188"/><rect fill="none" height="890.7344" style="stroke:#000000;stroke-width:1.5;" width="752.8833" x="20" y="192.9219"/><rect fill="none" height="588.2188" style="stroke:#000000;stroke-width:1.5;" width="732.8833" x="30" y="488.4375"/><line style="stroke:#181818;stroke-width:0.5;stroke-dasharray:5.0,5.0;" x1="86" x2="86" y1="107.2188" y2="1107.6563"/><line style="stroke:#181818;stroke-width:0.5;stroke-dasharray:5.0,5.0;" x1="262.9443" x2="262.9443" y1="107.2188" y2="1107.6563"/><line style="stroke:#181818;stroke-width:0.5;stroke-dasharray:5.0,5.0;" x1="515.6362" x2="515.6362" y1="107.2188" y2="1107.6563"/><line style="stroke:#181818;stroke-width:0.5;stroke-dasharray:5.0,5.0;" x1="658.8979" x2="658.8979" y1="107.2188" y2="1107.6563"/><rect fill="#E2E2F0" height="31.6094" rx="2.5" ry="2.5" style="stroke:#181818;stroke-width:0.5;" width="93.3584" x="40" y="74.6094"/><text fill="#000000" font-family="sans-serif" font-size="14" lengthAdjust="spacing" textLength="79.3584" x="47" y="96.1426">ESP32-CAM</text><rect fill="#E2E2F0" height="31.6094" rx="2.5" ry="2.5" style="stroke:#181818;stroke-width:0.5;" width="93.3584" x="40" y="1106.6563"/><text fill="#000000" font-family="sans-serif" font-size="14" lengthAdjust="spacing" textLength="79.3584" x="47" y="1128.1895">ESP32-CAM</text><rect fill="#E2E2F0" height="31.6094" rx="2.5" ry="2.5" style="stroke:#181818;stroke-width:0.5;" width="105.8203" x="210.9443" y="74.6094"/><text fill="#000000" font-family="sans-serif" font-size="14" lengthAdjust="spacing" textLength="91.8203" x="217.9443" y="96.1426">Backend Flask</text><rect fill="#E2E2F0" height="31.6094" rx="2.5" ry="2.5" style="stroke:#181818;stroke-width:0.5;" width="105.8203" x="210.9443" y="1106.6563"/><text fill="#000000" font-family="sans-serif" font-size="14" lengthAdjust="spacing" textLength="91.8203" x="217.9443" y="1128.1895">Backend Flask</text><text fill="#000000" font-family="sans-serif" font-size="14" lengthAdjust="spacing" textLength="76.2617" x="474.6362" y="104.1426">PostgreSQL</text><path d="M497.7671,53.6094 C497.7671,43.6094 515.7671,43.6094 515.7671,43.6094 C515.7671,43.6094 533.7671,43.6094 533.7671,53.6094 L533.7671,79.6094 C533.7671,89.6094 515.7671,89.6094 515.7671,89.6094 C515.7671,89.6094 497.7671,89.6094 497.7671,79.6094 L497.7671,53.6094 " fill="#E2E2F0" style="stroke:#181818;stroke-width:1.5;"/><path d="M497.7671,53.6094 C497.7671,63.6094 515.7671,63.6094 515.7671,63.6094 C515.7671,63.6094 533.7671,63.6094 533.7671,53.6094 " fill="none" style="stroke:#181818;stroke-width:1.5;"/><text fill="#000000" font-family="sans-serif" font-size="14" lengthAdjust="spacing" textLength="76.2617" x="474.6362" y="1121.1895">PostgreSQL</text><path d="M497.7671,1134.2656 C497.7671,1124.2656 515.7671,1124.2656 515.7671,1124.2656 C515.7671,1124.2656 533.7671,1124.2656 533.7671,1134.2656 L533.7671,1160.2656 C533.7671,1170.2656 515.7671,1170.2656 515.7671,1170.2656 C515.7671,1170.2656 497.7671,1170.2656 497.7671,1160.2656 L497.7671,1134.2656 " fill="#E2E2F0" style="stroke:#181818;stroke-width:1.5;"/><path d="M497.7671,1134.2656 C497.7671,1144.2656 515.7671,1144.2656 515.7671,1144.2656 C515.7671,1144.2656 533.7671,1144.2656 533.7671,1134.2656 " fill="none" style="stroke:#181818;stroke-width:1.5;"/><rect fill="#E2E2F0" height="49.2188" rx="2.5" ry="2.5" style="stroke:#181818;stroke-width:0.5;" width="185.9854" x="566.8979" y="57"/><text fill="#000000" font-family="sans-serif" font-size="14" lengthAdjust="spacing" textLength="91.8203" x="613.9805" y="78.5332">Webhook ERP</text><text fill="#000000" font-family="sans-serif" font-size="14" lengthAdjust="spacing" textLength="171.9854" x="573.8979" y="96.1426">(Odoo/Buk/SAP/Defontana)</text><rect fill="#E2E2F0" height="49.2188" rx="2.5" ry="2.5" style="stroke:#181818;stroke-width:0.5;" width="185.9854" x="566.8979" y="1106.6563"/><text fill="#000000" font-family="sans-serif" font-size="14" lengthAdjust="spacing" textLength="91.8203" x="613.9805" y="1128.1895">Webhook ERP</text><text fill="#000000" font-family="sans-serif" font-size="14" lengthAdjust="spacing" textLength="171.9854" x="573.8979" y="1145.7988">(Odoo/Buk/SAP/Defontana)</text><path d="M10,124.2188 L82.4346,124.2188 L82.4346,132.5703 L72.4346,142.5703 L10,142.5703 L10,124.2188 " fill="#EEEEEE" style="stroke:#000000;stroke-width:1.5;"/><rect fill="none" height="966.4375" style="stroke:#000000;stroke-width:1.5;" width="772.8833" x="10" y="124.2188"/><text fill="#000000" font-family="sans-serif" font-size="13" font-weight="bold" lengthAdjust="spacing" textLength="27.4346" x="25" y="138.7139">loop</text><text fill="#000000" font-family="sans-serif" font-size="11" font-weight="bold" lengthAdjust="spacing" textLength="96.5776" x="97.4346" y="137.6377">[cada 6 segundos]</text><line style="stroke:#181818;stroke-width:1;" x1="86.6792" x2="128.6792" y1="164.9219" y2="164.9219"/><line style="stroke:#181818;stroke-width:1;" x1="128.6792" x2="128.6792" y1="164.9219" y2="177.9219"/><line style="stroke:#181818;stroke-width:1;" x1="87.6792" x2="128.6792" y1="177.9219" y2="177.9219"/><polygon fill="#181818" points="97.6792,173.9219,87.6792,177.9219,97.6792,181.9219,93.6792,177.9219" style="stroke:#181818;stroke-width:1;"/><text fill="#000000" font-family="sans-serif" font-size="13" lengthAdjust="spacing" textLength="127.1563" x="93.6792" y="160.0654">evaluar PIR (GPIO12)</text><path d="M20,192.9219 L80.1709,192.9219 L80.1709,201.2734 L70.1709,211.2734 L20,211.2734 L20,192.9219 " fill="#EEEEEE" style="stroke:#000000;stroke-width:1.5;"/><rect fill="none" height="890.7344" style="stroke:#000000;stroke-width:1.5;" width="752.8833" x="20" y="192.9219"/><text fill="#000000" font-family="sans-serif" font-size="13" font-weight="bold" lengthAdjust="spacing" textLength="15.1709" x="35" y="207.417">alt</text><text fill="#000000" font-family="sans-serif" font-size="11" font-weight="bold" lengthAdjust="spacing" textLength="124.0669" x="95.1709" y="206.3408">[movimiento detectado]</text><line style="stroke:#181818;stroke-width:1;" x1="86.6792" x2="128.6792" y1="233.625" y2="233.625"/><line style="stroke:#181818;stroke-width:1;" x1="128.6792" x2="128.6792" y1="233.625" y2="246.625"/><line style="stroke:#181818;stroke-width:1;" x1="87.6792" x2="128.6792" y1="246.625" y2="246.625"/><polygon fill="#181818" points="97.6792,242.625,87.6792,246.625,97.6792,250.625,93.6792,246.625" style="stroke:#181818;stroke-width:1;"/><text fill="#000000" font-family="sans-serif" font-size="13" lengthAdjust="spacing" textLength="153.9116" x="93.6792" y="228.7686">capturar imagen (OV2640)</text><polygon fill="#181818" points="251.8545,289.3281,261.8545,293.3281,251.8545,297.3281,255.8545,293.3281" style="stroke:#181818;stroke-width:1;"/><line style="stroke:#181818;stroke-width:1;" x1="86.6792" x2="257.8545" y1="293.3281" y2="293.3281"/><text fill="#000000" font-family="sans-serif" font-size="13" lengthAdjust="spacing" textLength="153.1753" x="98.6792" y="272.1201">POST /api/facial/identificar</text><text fill="#000000" font-family="sans-serif" font-size="13" lengthAdjust="spacing" textLength="112.0234" x="119.2551" y="288.4717">{imagen_b64, mac}</text><polygon fill="#181818" points="503.7671,336.0313,513.7671,340.0313,503.7671,344.0313,507.7671,340.0313" style="stroke:#181818;stroke-width:1;"/><line style="stroke:#181818;stroke-width:1;" x1="263.8545" x2="509.7671" y1="340.0313" y2="340.0313"/><text fill="#000000" font-family="sans-serif" font-size="13" lengthAdjust="spacing" textLength="156.0889" x="311.7664" y="318.8232">SELECT embedding_facial</text><text fill="#000000" font-family="sans-serif" font-size="13" lengthAdjust="spacing" textLength="227.9126" x="275.8545" y="335.1748">FROM personas WHERE activo=TRUE</text><polygon fill="#181818" points="274.8545,366.3828,264.8545,370.3828,274.8545,374.3828,270.8545,370.3828" style="stroke:#181818;stroke-width:1;"/><line style="stroke:#181818;stroke-width:1;stroke-dasharray:2.0,2.0;" x1="268.8545" x2="514.7671" y1="370.3828" y2="370.3828"/><text fill="#000000" font-family="sans-serif" font-size="13" lengthAdjust="spacing" textLength="119.958" x="329.8318" y="365.5264">embeddings cifrados</text><line style="stroke:#181818;stroke-width:1;" x1="263.8545" x2="305.8545" y1="400.7344" y2="400.7344"/><line style="stroke:#181818;stroke-width:1;" x1="305.8545" x2="305.8545" y1="400.7344" y2="413.7344"/><line style="stroke:#181818;stroke-width:1;" x1="264.8545" x2="305.8545" y1="413.7344" y2="413.7344"/><polygon fill="#181818" points="274.8545,409.7344,264.8545,413.7344,274.8545,417.7344,270.8545,413.7344" style="stroke:#181818;stroke-width:1;"/><text fill="#000000" font-family="sans-serif" font-size="13" lengthAdjust="spacing" textLength="191.6548" x="270.8545" y="395.8779">descifrar_embedding() &#8704; registro</text><line style="stroke:#181818;stroke-width:1;" x1="263.8545" x2="305.8545" y1="460.4375" y2="460.4375"/><line style="stroke:#181818;stroke-width:1;" x1="305.8545" x2="305.8545" y1="460.4375" y2="473.4375"/><line style="stroke:#181818;stroke-width:1;" x1="264.8545" x2="305.8545" y1="473.4375" y2="473.4375"/><polygon fill="#181818" points="274.8545,469.4375,264.8545,473.4375,274.8545,477.4375,270.8545,473.4375" style="stroke:#181818;stroke-width:1;"/><text fill="#000000" font-family="sans-serif" font-size="13" lengthAdjust="spacing" textLength="103.3081" x="287.3013" y="439.2295">DeepFace.verify()</text><text fill="#000000" font-family="sans-serif" font-size="13" lengthAdjust="spacing" textLength="136.2017" x="270.8545" y="455.5811">distancia &lt; umbral (0.4)</text><path d="M30,488.4375 L90.1709,488.4375 L90.1709,496.7891 L80.1709,506.7891 L30,506.7891 L30,488.4375 " fill="#EEEEEE" style="stroke:#000000;stroke-width:1.5;"/><rect fill="none" height="588.2188" style="stroke:#000000;stroke-width:1.5;" width="732.8833" x="30" y="488.4375"/><text fill="#000000" font-family="sans-serif" font-size="13" font-weight="bold" lengthAdjust="spacing" textLength="15.1709" x="45" y="502.9326">alt</text><text fill="#000000" font-family="sans-serif" font-size="11" font-weight="bold" lengthAdjust="spacing" textLength="102.6738" x="105.1709" y="501.8564">[match encontrado]</text><polygon fill="#181818" points="503.7671,541.4922,513.7671,545.4922,503.7671,549.4922,507.7671,545.4922" style="stroke:#181818;stroke-width:1;"/><line style="stroke:#181818;stroke-width:1;" x1="263.8545" x2="509.7671" y1="545.4922" y2="545.4922"/><text fill="#000000" font-family="sans-serif" font-size="13" lengthAdjust="spacing" textLength="143.7554" x="317.9331" y="524.2842">INSERT INTO asistencia</text><text fill="#000000" font-family="sans-serif" font-size="13" lengthAdjust="spacing" textLength="200.1353" x="289.7432" y="540.6357">(persona_id, tipo, timestamp, mac)</text><polygon fill="#181818" points="274.8545,571.8438,264.8545,575.8438,274.8545,579.8438,270.8545,575.8438" style="stroke:#181818;stroke-width:1;"/><line style="stroke:#181818;stroke-width:1;stroke-dasharray:2.0,2.0;" x1="268.8545" x2="514.7671" y1="575.8438" y2="575.8438"/><text fill="#000000" font-family="sans-serif" font-size="13" lengthAdjust="spacing" textLength="75.1563" x="352.2327" y="570.9873">asistencia_id</text><polygon fill="#181818" points="97.6792,618.5469,87.6792,622.5469,97.6792,626.5469,93.6792,622.5469" style="stroke:#181818;stroke-width:1;"/><line style="stroke:#181818;stroke-width:1;stroke-dasharray:2.0,2.0;" x1="91.6792" x2="262.8545" y1="622.5469" y2="622.5469"/><text fill="#000000" font-family="sans-serif" font-size="13" lengthAdjust="spacing" textLength="44.0845" x="153.2246" y="601.3389">200 OK</text><text fill="#000000" font-family="sans-serif" font-size="13" lengthAdjust="spacing" textLength="137.3125" x="106.6106" y="617.6904">{persona, tipo_marcaje}</text><line style="stroke:#181818;stroke-width:1;" x1="86.6792" x2="128.6792" y1="652.8984" y2="652.8984"/><line style="stroke:#181818;stroke-width:1;" x1="128.6792" x2="128.6792" y1="652.8984" y2="665.8984"/><line style="stroke:#181818;stroke-width:1;" x1="87.6792" x2="128.6792" y1="665.8984" y2="665.8984"/><polygon fill="#181818" points="97.6792,661.8984,87.6792,665.8984,97.6792,669.8984,93.6792,665.8984" style="stroke:#181818;stroke-width:1;"/><text fill="#000000" font-family="sans-serif" font-size="13" lengthAdjust="spacing" textLength="160.0562" x="93.6792" y="648.042">LED verde + mensaje en UI</text><path d="M186,678.8984 L186,720.8984 L340,720.8984 L340,688.8984 L330,678.8984 L186,678.8984 " fill="#FEFFDD" style="stroke:#181818;stroke-width:0.5;"/><path d="M330,678.8984 L330,688.8984 L340,688.8984 L330,678.8984 " fill="#FEFFDD" style="stroke:#181818;stroke-width:0.5;"/><text fill="#000000" font-family="sans-serif" font-size="13" lengthAdjust="spacing" textLength="101.8926" x="192" y="697.3936">Thread as&#237;ncrono</text><text fill="#000000" font-family="sans-serif" font-size="13" lengthAdjust="spacing" textLength="133.7007" x="192" y="713.7451">(no bloquea respuesta)</text><line style="stroke:#181818;stroke-width:1;" x1="263.8545" x2="305.8545" y1="765.3047" y2="765.3047"/><line style="stroke:#181818;stroke-width:1;" x1="305.8545" x2="305.8545" y1="765.3047" y2="778.3047"/><line style="stroke:#181818;stroke-width:1;" x1="263.8545" x2="305.8545" y1="778.3047" y2="778.3047"/><line style="stroke:#181818;stroke-width:1;" x1="264.8545" x2="274.8545" y1="778.3047" y2="774.3047"/><line style="stroke:#181818;stroke-width:1;" x1="264.8545" x2="274.8545" y1="778.3047" y2="782.3047"/><text fill="#000000" font-family="sans-serif" font-size="13" lengthAdjust="spacing" textLength="144.1743" x="283.4736" y="744.0967">Thread(target=push_erp,</text><text fill="#000000" font-family="sans-serif" font-size="13" lengthAdjust="spacing" textLength="162.189" x="278.0781" y="760.4482">args=(asistencia_id,)).start()</text><polygon fill="#181818" points="503.7671,821.0078,513.7671,825.0078,503.7671,829.0078,507.7671,825.0078" style="stroke:#181818;stroke-width:1;"/><line style="stroke:#181818;stroke-width:1;" x1="263.8545" x2="509.7671" y1="825.0078" y2="825.0078"/><text fill="#000000" font-family="sans-serif" font-size="13" lengthAdjust="spacing" textLength="157.5298" x="311.0459" y="803.7998">SELECT integraciones_erp</text><text fill="#000000" font-family="sans-serif" font-size="13" lengthAdjust="spacing" textLength="158.5898" x="310.5159" y="820.1514">WHERE envio_auto=TRUE</text><polygon fill="#181818" points="274.8545,851.3594,264.8545,855.3594,274.8545,859.3594,270.8545,855.3594" style="stroke:#181818;stroke-width:1;"/><line style="stroke:#181818;stroke-width:1;stroke-dasharray:2.0,2.0;" x1="268.8545" x2="514.7671" y1="855.3594" y2="855.3594"/><text fill="#000000" font-family="sans-serif" font-size="13" lengthAdjust="spacing" textLength="148.5098" x="315.5559" y="850.5029">configuraci&#243;n + field_map</text><polygon fill="#181818" points="647.8906,881.7109,657.8906,885.7109,647.8906,889.7109,651.8906,885.7109" style="stroke:#181818;stroke-width:1;"/><line style="stroke:#181818;stroke-width:1;" x1="263.8545" x2="653.8906" y1="885.7109" y2="885.7109"/><text fill="#000000" font-family="sans-serif" font-size="13" lengthAdjust="spacing" textLength="206.6733" x="358.5359" y="880.8545">POST webhook (payload mapeado)</text><polygon fill="#181818" points="274.8545,912.0625,264.8545,916.0625,274.8545,920.0625,270.8545,916.0625" style="stroke:#181818;stroke-width:1;"/><line style="stroke:#181818;stroke-width:1;stroke-dasharray:2.0,2.0;" x1="268.8545" x2="658.8906" y1="916.0625" y2="916.0625"/><text fill="#000000" font-family="sans-serif" font-size="13" lengthAdjust="spacing" textLength="44.0845" x="439.8303" y="911.2061">200 OK</text><polygon fill="#181818" points="503.7671,975.1172,513.7671,979.1172,503.7671,983.1172,507.7671,979.1172" style="stroke:#181818;stroke-width:1;"/><line style="stroke:#181818;stroke-width:1;" x1="263.8545" x2="509.7671" y1="979.1172" y2="979.1172"/><text fill="#000000" font-family="sans-serif" font-size="13" lengthAdjust="spacing" textLength="159.688" x="309.9668" y="941.5576">UPDATE integraciones_erp</text><text fill="#000000" font-family="sans-serif" font-size="13" lengthAdjust="spacing" textLength="153.5117" x="313.0549" y="957.9092">SET ultimo_envio=NOW(),</text><text fill="#000000" font-family="sans-serif" font-size="13" lengthAdjust="spacing" textLength="112.2773" x="340.8958" y="974.2607">ultimo_estado='OK'</text><line style="stroke:#000000;stroke-width:1;stroke-dasharray:2.0,2.0;" x1="30" x2="762.8833" y1="988.1172" y2="988.1172"/><text fill="#000000" font-family="sans-serif" font-size="11" font-weight="bold" lengthAdjust="spacing" textLength="58.6738" x="35" y="999.5361">[sin match]</text><polygon fill="#181818" points="97.6792,1021.3047,87.6792,1025.3047,97.6792,1029.3047,93.6792,1025.3047" style="stroke:#181818;stroke-width:1;"/><line style="stroke:#181818;stroke-width:1;stroke-dasharray:2.0,2.0;" x1="91.6792" x2="262.8545" y1="1025.3047" y2="1025.3047"/><text fill="#000000" font-family="sans-serif" font-size="13" lengthAdjust="spacing" textLength="134.9766" x="107.7786" y="1020.4482">404 {error: "no_match"}</text><line style="stroke:#181818;stroke-width:1;" x1="86.6792" x2="128.6792" y1="1055.6563" y2="1055.6563"/><line style="stroke:#181818;stroke-width:1;" x1="128.6792" x2="128.6792" y1="1055.6563" y2="1068.6563"/><line style="stroke:#181818;stroke-width:1;" x1="87.6792" x2="128.6792" y1="1068.6563" y2="1068.6563"/><polygon fill="#181818" points="97.6792,1064.6563,87.6792,1068.6563,97.6792,1072.6563,93.6792,1068.6563" style="stroke:#181818;stroke-width:1;"/><text fill="#000000" font-family="sans-serif" font-size="13" lengthAdjust="spacing" textLength="104.4126" x="93.6792" y="1050.7998">LED rojo + buzzer</text><!--SRC=[VLJDJjj04BxxAKQvOAj0KXfnG0qI4DEYGkqceLmYHHDxucnZxxgxwrHjLObZ7w0lq0VegO_0c_0a7Vy4I0CSuZZPRxwP-URRiSAc11Ue8_n4W8LLsSrlAo85jzU_829fXQGKOOQHmDHnp4B873LcOEOOgoz29doM6dfuGfyBaX5Ta36Oq54g4bbHaNOSXZ2zo55QQFd3yDNUpidHHGlGGFLh7N2CqO9a3ASfcaK5QlvnOhGuHKFG2fMnYQRXX_CAq3zUfxYYwLof1VY3S2pT85QgVLmisiEZiDsdcP8M9Nfr_a7eEAbIEKGO8-np8qaXOsKSg6k3dSFcvG1eYMc16iAp0RXlmhFWvPx7E4mjP6efCi7zAeZ9KcHPA3vwX2J2t1QQMKJ6GabmWuzx-zsEjuvUYN00OJ0SGHjpqQxdqHPnEQ6PY52FvVUQPJBTxsv3Xj4Ff-9PXJDJ_vX9XlwvVp82ogOKnpo_ISqrbgU3u09oqaP9LkFghJ_m0IChbget6bpw5HapxAoLT4TZ818pZRLSQrdlmJ6P2gGdTs6k1xS_hq5J8epLwkdOFb5-YX7jBacBsLVN6ykOGr1oyV0QYcogCGMtizlrwhwhKQ2Dvi1cv3dhrHWs9JbxF_G78_uQ1Mm4PgMIbUtIg34HyJPOaQlocH5dpV9AOgyXt93bdeLZ_y_wm05xdGu4xtXsJQOwpIIhB-IF9dB3EET-7rY7cE05P2HDUNdPFvTdJXCXbILG37bGqsYk2MCkxUQFZBIIYXkK2gQfulkAF0AJ5sLltePAXniihaMTaEtbXPbFIEVROycAwyJqtBNMjprlbocrTRqdj6_iA7Wz99gTg2IPad4iQmUIN0erAJVJlGiV4PmdF1D9KJBS_9KioqnG6hEG-MPUlkYho_IbsGvkZbzJnUfm0BUdLjMMqFL4zSIUQEOox1-D_CUQ6VeZA59sZvfK7VNU1rUkLya6TmUcN1MzhU3TLiLFl5V125dR-1aNTJjT-4vQAtq0BLdQX_6jPzsZrIV5AasBRzzuBLVPP6dKybb-_W40]--></g></svg>