<svg xmlns="http://www.w3.org/2000/svg" xmlns:xlink="http://www.w3.org/1999/xlink" contentStyleType="text/css" height="1739px" preserveAspectRatio="none" style="width:799px;height:1739px;background:#FFFFFF;" version="1.1" viewBox="0 0 799 1739" width="799px" zoomAndPan="magnify"><title>Sincronizaci&#243;n bidireccional ESP32 &#8596; Backend</title><defs/><g><text fill="#000000" font-family="sans-serif" font-size="14" font-weight="bold" lengthAdjust="spacing" textLength="315.9365" x="240.4417" y="34.5332">Sincronizaci&#243;n bidireccional ESP32 &#8596; Backend</text><rect fill="none" height="22.6406" style="stroke:none;stroke-width:1;" width="766.8198" x="15" y="51.0645"/><rect fill="#E8F5E9" height="1676.0391" style="stroke:#E8F5E9;stroke-width:1;" width="393.5186" x="15" y="51.0645"/><ellipse cx="123.2051" cy="88.7051" fill="#222222" rx="10" ry="10" style="stroke:#222222;stroke-width:1;"/><rect fill="#F1F1F1" height="35.0938" rx="12.5" ry="12.5" style="stroke:#181818;stroke-width:0.5;" width="106.6953" x="69.8574" y="118.7051"/><text fill="#000000" font-family="sans-serif" font-size="12" lengthAdjust="spacing" textLength="86.6953" x="79.8574" y="141.1621">Wi-Fi conectado</text><rect fill="#F1F1F1" height="35.0938" rx="12.5" ry="12.5" style="stroke:#181818;stroke-width:0.5;" width="148.0566" x="49.1768" y="173.7988"/><text fill="#000000" font-family="sans-serif" font-size="12" lengthAdjust="spacing" textLength="128.0566" x="59.1768" y="196.2559">GET /api/sync/personas</text><rect fill="#F1F1F1" height="35.0938" rx="12.5" ry="12.5" style="stroke:#181818;stroke-width:0.5;" width="132.043" x="57.1836" y="228.8926"/><text fill="#000000" font-family="sans-serif" font-size="12" lengthAdjust="spacing" textLength="112.043" x="67.1836" y="251.3496">GET /api/sync/turnos</text><path d="M219.2314,273.9863 L219.2314,307.6895 L199.2314,311.6895 L219.2314,315.6895 L219.2314,349.3926 A0,0 0 0 0 219.2314,349.3926 L403.5186,349.3926 A0,0 0 0 0 403.5186,349.3926 L403.5186,283.9863 L393.5186,273.9863 L219.2314,273.9863 A0,0 0 0 0 219.2314,273.9863 " fill="#FEFFDD" style="stroke:#181818;stroke-width:0.5;"/><path d="M393.5186,273.9863 L393.5186,283.9863 L403.5186,283.9863 L393.5186,273.9863 " fill="#FEFFDD" style="stroke:#181818;stroke-width:0.5;"/><text fill="#000000" font-family="sans-serif" font-size="13" lengthAdjust="spacing" textLength="163.2871" x="225.2314" y="292.4814">Cach&#233; en SPIFFS / LittleFS:</text><text fill="#000000" font-family="sans-serif" font-size="13" lengthAdjust="spacing" textLength="93.4438" x="225.2314" y="308.833">&#8226; /personas.json</text><text fill="#000000" font-family="sans-serif" font-size="13" lengthAdjust="spacing" textLength="76.0957" x="225.2314" y="325.1846">&#8226; /turnos.json</text><text fill="#000000" font-family="sans-serif" font-size="13" lengthAdjust="spacing" textLength="97.7729" x="225.2314" y="341.5361">&#8226; /erp-config.json</text><rect fill="#F1F1F1" height="35.0938" rx="12.5" ry="12.5" style="stroke:#181818;stroke-width:0.5;" width="152.0527" x="47.1787" y="294.1426"/><text fill="#000000" font-family="sans-serif" font-size="12" lengthAdjust="spacing" textLength="132.0527" x="57.1787" y="316.5996">GET /api/sync/erp-config</text><rect fill="#F1F1F1" height="50.1875" rx="12.5" ry="12.5" style="stroke:#181818;stroke-width:0.5;" width="150.0488" x="48.1807" y="369.3926"/><text fill="#000000" font-family="sans-serif" font-size="12" lengthAdjust="spacing" textLength="95.3789" x="58.1807" y="391.8496">Operaci&#243;n normal</text><text fill="#000000" font-family="sans-serif" font-size="12" lengthAdjust="spacing" textLength="130.0488" x="58.1807" y="406.9434">(marcaje en tiempo real)</text><rect fill="#F1F1F1" height="35.0938" rx="12.5" ry="12.5" style="stroke:#181818;stroke-width:0.5;" width="138.0488" x="54.1807" y="488.498"/><text fill="#000000" font-family="sans-serif" font-size="12" lengthAdjust="spacing" textLength="118.0488" x="64.1807" y="510.9551">POST /api/asistencias</text><polygon fill="#F1F1F1" points="95.082,543.5918,151.3281,543.5918,163.3281,555.5918,151.3281,567.5918,95.082,567.5918,83.082,555.5918,95.082,543.5918" style="stroke:#181818;stroke-width:0.5;"/><text fill="#000000" font-family="sans-serif" font-size="11" lengthAdjust="spacing" textLength="56.2461" x="95.082" y="560.0928">HTTP 200?</text><text fill="#000000" font-family="sans-serif" font-size="11" lengthAdjust="spacing" textLength="8.5562" x="74.5259" y="553.1748">s&#237;</text><text fill="#000000" font-family="sans-serif" font-size="11" lengthAdjust="spacing" textLength="20.1792" x="163.3281" y="553.1748">fallo</text><rect fill="#F1F1F1" height="35.0938" rx="12.5" ry="12.5" style="stroke:#181818;stroke-width:0.5;" width="69.3652" x="21" y="577.5918"/><text fill="#000000" font-family="sans-serif" font-size="12" lengthAdjust="spacing" textLength="49.3652" x="31" y="600.0488">continuar</text><rect fill="#F1F1F1" height="50.1875" rx="12.5" ry="12.5" style="stroke:#181818;stroke-width:0.5;" width="160.7246" x="110.3652" y="577.5918"/><text fill="#000000" font-family="sans-serif" font-size="12" lengthAdjust="spacing" textLength="140.7246" x="120.3652" y="600.0488">APPEND /asistencias.json</text><text fill="#000000" font-family="sans-serif" font-size="12" lengthAdjust="spacing" textLength="58.0195" x="120.3652" y="615.1426">(cola local)</text><polygon fill="#F1F1F1" points="123.2051,633.7793,135.2051,645.7793,123.2051,657.7793,111.2051,645.7793,123.2051,633.7793" style="stroke:#181818;stroke-width:0.5;"/><polygon fill="#F1F1F1" points="70.9175,439.5801,175.4927,439.5801,187.4927,451.5801,175.4927,463.5801,70.9175,463.5801,58.9175,451.5801,70.9175,439.5801" style="stroke:#181818;stroke-width:0.5;"/><text fill="#000000" font-family="sans-serif" font-size="11" lengthAdjust="spacing" textLength="8.5562" x="127.2051" y="474.999">s&#237;</text><text fill="#000000" font-family="sans-serif" font-size="11" lengthAdjust="spacing" textLength="104.5752" x="70.9175" y="456.0811">asistencia generada?</text><polygon fill="#F1F1F1" points="123.2051,677.7793,135.2051,689.7793,123.2051,701.7793,111.2051,689.7793,123.2051,677.7793" style="stroke:#181818;stroke-width:0.5;"/><ellipse cx="123.2051" cy="732.7793" fill="none" rx="11" ry="11" style="stroke:#222222;stroke-width:1;"/><ellipse cx="123.2051" cy="732.7793" fill="#222222" rx="6" ry="6" style="stroke:#222222;stroke-width:1;"/><line style="stroke:#000000;stroke-width:1.5;" x1="15" x2="15" y1="51.0645" y2="1727.1035"/><rect fill="#FFF3E0" height="1676.0391" style="stroke:#FFF3E0;stroke-width:1;" width="371.8008" x="408.5186" y="51.0645"/><ellipse cx="578.5781" cy="763.7793" fill="#222222" rx="10" ry="10" style="stroke:#222222;stroke-width:1;"/><rect fill="#F1F1F1" height="35.0938" rx="12.5" ry="12.5" style="stroke:#181818;stroke-width:0.5;" width="164.0762" x="496.54" y="793.7793"/><text fill="#000000" font-family="sans-serif" font-size="12" lengthAdjust="spacing" textLength="144.0762" x="506.54" y="816.2363">p&#233;rdida de Wi-Fi detectada</text><rect fill="#F1F1F1" height="50.1875" rx="12.5" ry="12.5" style="stroke:#181818;stroke-width:0.5;" width="174.7402" x="491.208" y="848.873"/><text fill="#000000" font-family="sans-serif" font-size="12" lengthAdjust="spacing" textLength="150.7383" x="501.208" y="871.3301">cargar cach&#233; desde SPIFFS</text><text fill="#000000" font-family="sans-serif" font-size="12" lengthAdjust="spacing" textLength="154.7402" x="501.208" y="886.4238">(/personas.json, /turnos.json)</text><rect fill="#F1F1F1" height="50.1875" rx="12.5" ry="12.5" style="stroke:#181818;stroke-width:0.5;" width="158.0645" x="499.5459" y="919.0605"/><text fill="#000000" font-family="sans-serif" font-size="12" lengthAdjust="spacing" textLength="130.7461" x="509.5459" y="941.5176">operar con datos locales</text><text fill="#000000" font-family="sans-serif" font-size="12" lengthAdjust="spacing" textLength="138.0645" x="509.5459" y="956.6113">(marcaje + huella + facial)</text><rect fill="#F1F1F1" height="50.1875" rx="12.5" ry="12.5" style="stroke:#181818;stroke-width:0.5;" width="160.7246" x="498.2158" y="989.248"/><text fill="#000000" font-family="sans-serif" font-size="12" lengthAdjust="spacing" textLength="73.0488" x="508.2158" y="1011.7051">asistencias &#8594;</text><text fill="#000000" font-family="sans-serif" font-size="12" lengthAdjust="spacing" textLength="140.7246" x="508.2158" y="1026.7988">APPEND /asistencias.json</text><rect fill="#F1F1F1" height="35.0938" rx="12.5" ry="12.5" style="stroke:#181818;stroke-width:0.5;" width="122.7266" x="517.2148" y="1059.4355"/><text fill="#000000" font-family="sans-serif" font-size="12" lengthAdjust="spacing" textLength="102.7266" x="527.2148" y="1081.8926">esperar reconexi&#243;n</text><rect fill="#F1F1F1" height="35.0938" rx="12.5" ry="12.5" style="stroke:#181818;stroke-width:0.5;" width="131.3867" x="512.8848" y="1163.4473"/><text fill="#000000" font-family="sans-serif" font-size="12" lengthAdjust="spacing" textLength="111.3867" x="522.8848" y="1185.9043">leer /asistencias.json</text><rect fill="#F1F1F1" height="35.0938" rx="12.5" ry="12.5" style="stroke:#181818;stroke-width:0.5;" width="170.7441" x="493.2061" y="1262.541"/><text fill="#000000" font-family="sans-serif" font-size="12" lengthAdjust="spacing" textLength="150.7441" x="503.2061" y="1284.998">POST asistencia al backend</text><polygon fill="#F1F1F1" points="556.8682,1317.6348,600.2881,1317.6348,612.2881,1329.6348,600.2881,1341.6348,556.8682,1341.6348,544.8682,1329.6348,556.8682,1317.6348" style="stroke:#181818;stroke-width:0.5;"/><text fill="#000000" font-family="sans-serif" font-size="11" lengthAdjust="spacing" textLength="43.4199" x="556.8682" y="1334.1357">200 OK?</text><text fill="#000000" font-family="sans-serif" font-size="11" lengthAdjust="spacing" textLength="8.5562" x="536.312" y="1327.2178">s&#237;</text><text fill="#000000" font-family="sans-serif" font-size="11" lengthAdjust="spacing" textLength="12.2354" x="612.2881" y="1327.2178">no</text><rect fill="#F1F1F1" height="35.0938" rx="12.5" ry="12.5" style="stroke:#181818;stroke-width:0.5;" width="160.7188" x="414.5186" y="1351.6348"/><text fill="#000000" font-family="sans-serif" font-size="12" lengthAdjust="spacing" textLength="140.7188" x="424.5186" y="1374.0918">marcar como sincronizada</text><rect fill="#F1F1F1" height="35.0938" rx="12.5" ry="12.5" style="stroke:#181818;stroke-width:0.5;" width="134.082" x="595.2373" y="1351.6348"/><text fill="#000000" font-family="sans-serif" font-size="12" lengthAdjust="spacing" textLength="114.082" x="605.2373" y="1374.0918">reintento exponencial</text><polygon fill="#F1F1F1" points="578.5781,1392.7285,590.5781,1404.7285,578.5781,1416.7285,566.5781,1404.7285,578.5781,1392.7285" style="stroke:#181818;stroke-width:0.5;"/><polygon fill="#F1F1F1" points="578.5781,1218.541,590.5781,1230.541,578.5781,1242.541,566.5781,1230.541,578.5781,1218.541" style="stroke:#181818;stroke-width:0.5;"/><polygon fill="#F1F1F1" points="537.6074,1436.7285,619.5488,1436.7285,631.5488,1448.7285,619.5488,1460.7285,537.6074,1460.7285,525.6074,1448.7285,537.6074,1436.7285" style="stroke:#181818;stroke-width:0.5;"/><text fill="#000000" font-family="sans-serif" font-size="11" lengthAdjust="spacing" textLength="81.9414" x="537.6074" y="1453.2295">quedan registros</text><rect fill="#F1F1F1" height="35.0938" rx="12.5" ry="12.5" style="stroke:#181818;stroke-width:0.5;" width="143.3867" x="506.8848" y="1480.7285"/><text fill="#000000" font-family="sans-serif" font-size="12" lengthAdjust="spacing" textLength="123.3867" x="516.8848" y="1503.1855">vaciar /asistencias.json</text><rect fill="#F1F1F1" height="50.1875" rx="12.5" ry="12.5" style="stroke:#181818;stroke-width:0.5;" width="103.3613" x="526.8975" y="1535.8223"/><text fill="#000000" font-family="sans-serif" font-size="12" lengthAdjust="spacing" textLength="39.3398" x="536.8975" y="1558.2793">re-sync</text><text fill="#000000" font-family="sans-serif" font-size="12" lengthAdjust="spacing" textLength="83.3613" x="536.8975" y="1573.373">GET /api/sync/*</text><rect fill="#F1F1F1" height="35.0938" rx="12.5" ry="12.5" style="stroke:#181818;stroke-width:0.5;" width="150.6934" x="503.2314" y="1606.0098"/><text fill="#000000" font-family="sans-serif" font-size="12" lengthAdjust="spacing" textLength="130.6934" x="513.2314" y="1628.4668">volver a MODO ONLINE</text><polygon fill="#F1F1F1" points="531.5085,1114.5293,625.6477,1114.5293,637.6477,1126.5293,625.6477,1138.5293,531.5085,1138.5293,519.5085,1126.5293,531.5085,1114.5293" style="stroke:#181818;stroke-width:0.5;"/><text fill="#000000" font-family="sans-serif" font-size="11" lengthAdjust="spacing" textLength="8.5562" x="582.5781" y="1149.9482">s&#237;</text><text fill="#000000" font-family="sans-serif" font-size="11" lengthAdjust="spacing" textLength="94.1392" x="531.5085" y="1131.0303">Wi-Fi restablecido?</text><polygon fill="#F1F1F1" points="578.5781,1661.1035,590.5781,1673.1035,578.5781,1685.1035,566.5781,1673.1035,578.5781,1661.1035" style="stroke:#181818;stroke-width:0.5;"/><ellipse cx="578.5781" cy="1716.1035" fill="none" rx="11" ry="11" style="stroke:#222222;stroke-width:1;"/><ellipse cx="578.5781" cy="1716.1035" fill="#222222" rx="6" ry="6" style="stroke:#222222;stroke-width:1;"/><line style="stroke:#000000;stroke-width:1.5;" x1="408.5186" x2="408.5186" y1="51.0645" y2="1727.1035"/><line style="stroke:#000000;stroke-width:1.5;" x1="780.3193" x2="780.3193" y1="51.0645" y2="1727.1035"/><line style="stroke:#181818;stroke-width:1;" x1="123.2051" x2="123.2051" y1="98.7051" y2="118.7051"/><polygon fill="#181818" points="119.2051,108.7051,123.2051,118.7051,127.2051,108.7051,123.2051,112.7051" style="stroke:#181818;stroke-width:1;"/><line style="stroke:#181818;stroke-width:1;" x1="123.2051" x2="123.2051" y1="153.7988" y2="173.7988"/><polygon fill="#181818" points="119.2051,163.7988,123.2051,173.7988,127.2051,163.7988,123.2051,167.7988" style="stroke:#181818;stroke-width:1;"/><line style="stroke:#181818;stroke-width:1;" x1="123.2051" x2="123.2051" y1="208.8926" y2="228.8926"/><polygon fill="#181818" points="119.2051,218.8926,123.2051,228.8926,127.2051,218.8926,123.2051,222.8926" style="stroke:#181818;stroke-width:1;"/><line style="stroke:#181818;stroke-width:1;" x1="123.2051" x2="123.2051" y1="263.9863" y2="294.1426"/><polygon fill="#181818" points="119.2051,284.1426,123.2051,294.1426,127.2051,284.1426,123.2051,288.1426" style="stroke:#181818;stroke-width:1;"/><line style="stroke:#181818;stroke-width:1;" x1="123.2051" x2="123.2051" y1="329.2363" y2="369.3926"/><polygon fill="#181818" points="119.2051,359.3926,123.2051,369.3926,127.2051,359.3926,123.2051,363.3926" style="stroke:#181818;stroke-width:1;"/><line style="stroke:#181818;stroke-width:1;" x1="83.082" x2="55.6826" y1="555.5918" y2="555.5918"/><line style="stroke:#181818;stroke-width:1;" x1="55.6826" x2="55.6826" y1="555.5918" y2="577.5918"/><polygon fill="#181818" points="51.6826,567.5918,55.6826,577.5918,59.6826,567.5918,55.6826,571.5918" style="stroke:#181818;stroke-width:1;"/><line style="stroke:#181818;stroke-width:1;" x1="163.3281" x2="190.7275" y1="555.5918" y2="555.5918"/><line style="stroke:#181818;stroke-width:1;" x1="190.7275" x2="190.7275" y1="555.5918" y2="577.5918"/><polygon fill="#181818" points="186.7275,567.5918,190.7275,577.5918,194.7275,567.5918,190.7275,571.5918" style="stroke:#181818;stroke-width:1;"/><line style="stroke:#181818;stroke-width:1;" x1="55.6826" x2="55.6826" y1="612.6855" y2="645.7793"/><line style="stroke:#181818;stroke-width:1;" x1="55.6826" x2="111.2051" y1="645.7793" y2="645.7793"/><polygon fill="#181818" points="101.2051,641.7793,111.2051,645.7793,101.2051,649.7793,105.2051,645.7793" style="stroke:#181818;stroke-width:1;"/><line style="stroke:#181818;stroke-width:1;" x1="190.7275" x2="190.7275" y1="627.7793" y2="645.7793"/><line style="stroke:#181818;stroke-width:1;" x1="190.7275" x2="135.2051" y1="645.7793" y2="645.7793"/><polygon fill="#181818" points="145.2051,641.7793,135.2051,645.7793,145.2051,649.7793,141.2051,645.7793" style="stroke:#181818;stroke-width:1;"/><line style="stroke:#181818;stroke-width:1;" x1="123.2051" x2="123.2051" y1="523.5918" y2="543.5918"/><polygon fill="#181818" points="119.2051,533.5918,123.2051,543.5918,127.2051,533.5918,123.2051,537.5918" style="stroke:#181818;stroke-width:1;"/><line style="stroke:#181818;stroke-width:1;" x1="123.2051" x2="123.2051" y1="463.5801" y2="488.498"/><polygon fill="#181818" points="119.2051,478.498,123.2051,488.498,127.2051,478.498,123.2051,482.498" style="stroke:#181818;stroke-width:1;"/><line style="stroke:#181818;stroke-width:1;" x1="187.4927" x2="291.0898" y1="451.5801" y2="451.5801"/><polygon fill="#181818" points="287.0898,555.6387,291.0898,565.6387,295.0898,555.6387,291.0898,559.6387" style="stroke:#181818;stroke-width:1;"/><line style="stroke:#181818;stroke-width:1;" x1="291.0898" x2="291.0898" y1="451.5801" y2="689.7793"/><line style="stroke:#181818;stroke-width:1;" x1="291.0898" x2="135.2051" y1="689.7793" y2="689.7793"/><polygon fill="#181818" points="145.2051,685.7793,135.2051,689.7793,145.2051,693.7793,141.2051,689.7793" style="stroke:#181818;stroke-width:1;"/><line style="stroke:#181818;stroke-width:1;" x1="123.2051" x2="123.2051" y1="657.7793" y2="677.7793"/><polygon fill="#181818" points="119.2051,667.7793,123.2051,677.7793,127.2051,667.7793,123.2051,671.7793" style="stroke:#181818;stroke-width:1;"/><line style="stroke:#181818;stroke-width:1;" x1="123.2051" x2="123.2051" y1="419.5801" y2="439.5801"/><polygon fill="#181818" points="119.2051,429.5801,123.2051,439.5801,127.2051,429.5801,123.2051,433.5801" style="stroke:#181818;stroke-width:1;"/><line style="stroke:#181818;stroke-width:1;" x1="123.2051" x2="123.2051" y1="701.7793" y2="721.7793"/><polygon fill="#181818" points="119.2051,711.7793,123.2051,721.7793,127.2051,711.7793,123.2051,715.7793" style="stroke:#181818;stroke-width:1;"/><line style="stroke:#181818;stroke-width:1;" x1="578.5781" x2="578.5781" y1="773.7793" y2="793.7793"/><polygon fill="#181818" points="574.5781,783.7793,578.5781,793.7793,582.5781,783.7793,578.5781,787.7793" style="stroke:#181818;stroke-width:1;"/><line style="stroke:#181818;stroke-width:1;" x1="578.5781" x2="578.5781" y1="828.873" y2="848.873"/><polygon fill="#181818" points="574.5781,838.873,578.5781,848.873,582.5781,838.873,578.5781,842.873" style="stroke:#181818;stroke-width:1;"/><line style="stroke:#181818;stroke-width:1;" x1="578.5781" x2="578.5781" y1="899.0605" y2="919.0605"/><polygon fill="#181818" points="574.5781,909.0605,578.5781,919.0605,582.5781,909.0605,578.5781,913.0605" style="stroke:#181818;stroke-width:1;"/><line style="stroke:#181818;stroke-width:1;" x1="578.5781" x2="578.5781" y1="969.248" y2="989.248"/><polygon fill="#181818" points="574.5781,979.248,578.5781,989.248,582.5781,979.248,578.5781,983.248" style="stroke:#181818;stroke-width:1;"/><line style="stroke:#181818;stroke-width:1;" x1="578.5781" x2="578.5781" y1="1039.4355" y2="1059.4355"/><polygon fill="#181818" points="574.5781,1049.4355,578.5781,1059.4355,582.5781,1049.4355,578.5781,1053.4355" style="stroke:#181818;stroke-width:1;"/><line style="stroke:#181818;stroke-width:1;" x1="544.8682" x2="494.8779" y1="1329.6348" y2="1329.6348"/><line style="stroke:#181818;stroke-width:1;" x1="494.8779" x2="494.8779" y1="1329.6348" y2="1351.6348"/><polygon fill="#181818" points="490.8779,1341.6348,494.8779,1351.6348,498.8779,1341.6348,494.8779,1345.6348" style="stroke:#181818;stroke-width:1;"/><line style="stroke:#181818;stroke-width:1;" x1="612.2881" x2="662.2783" y1="1329.6348" y2="1329.6348"/><line style="stroke:#181818;stroke-width:1;" x1="662.2783" x2="662.2783" y1="1329.6348" y2="1351.6348"/><polygon fill="#181818" points="658.2783,1341.6348,662.2783,1351.6348,666.2783,1341.6348,662.2783,1345.6348" style="stroke:#181818;stroke-width:1;"/><line style="stroke:#181818;stroke-width:1;" x1="494.8779" x2="494.8779" y1="1386.7285" y2="1404.7285"/><line style="stroke:#181818;stroke-width:1;" x1="494.8779" x2="566.5781" y1="1404.7285" y2="1404.7285"/><polygon fill="#181818" points="556.5781,1400.7285,566.5781,1404.7285,556.5781,1408.7285,560.5781,1404.7285" style="stroke:#181818;stroke-width:1;"/><line style="stroke:#181818;stroke-width:1;" x1="662.2783" x2="662.2783" y1="1386.7285" y2="1404.7285"/><line style="stroke:#181818;stroke-width:1;" x1="662.2783" x2="590.5781" y1="1404.7285" y2="1404.7285"/><polygon fill="#181818" points="600.5781,1400.7285,590.5781,1404.7285,600.5781,1408.7285,596.5781,1404.7285" style="stroke:#181818;stroke-width:1;"/><line style="stroke:#181818;stroke-width:1;" x1="578.5781" x2="578.5781" y1="1297.6348" y2="1317.6348"/><polygon fill="#181818" points="574.5781,1307.6348,578.5781,1317.6348,582.5781,1307.6348,578.5781,1311.6348" style="stroke:#181818;stroke-width:1;"/><line style="stroke:#181818;stroke-width:1;" x1="578.5781" x2="578.5781" y1="1242.541" y2="1262.541"/><polygon fill="#181818" points="574.5781,1252.541,578.5781,1262.541,582.5781,1252.541,578.5781,1256.541" style="stroke:#181818;stroke-width:1;"/><line style="stroke:#181818;stroke-width:1;" x1="631.5488" x2="743.3193" y1="1448.7285" y2="1448.7285"/><polygon fill="#181818" points="739.3193,1342.1348,743.3193,1332.1348,747.3193,1342.1348,743.3193,1338.1348" style="stroke:#181818;stroke-width:1;"/><line style="stroke:#181818;stroke-width:1;" x1="743.3193" x2="743.3193" y1="1230.541" y2="1448.7285"/><line style="stroke:#181818;stroke-width:1;" x1="743.3193" x2="590.5781" y1="1230.541" y2="1230.541"/><polygon fill="#181818" points="600.5781,1226.541,590.5781,1230.541,600.5781,1234.541,596.5781,1230.541" style="stroke:#181818;stroke-width:1;"/><line style="stroke:#181818;stroke-width:1;" x1="578.5781" x2="578.5781" y1="1416.7285" y2="1436.7285"/><polygon fill="#181818" points="574.5781,1426.7285,578.5781,1436.7285,582.5781,1426.7285,578.5781,1430.7285" style="stroke:#181818;stroke-width:1;"/><line style="stroke:#181818;stroke-width:1;" x1="578.5781" x2="578.5781" y1="1198.541" y2="1218.541"/><polygon fill="#181818" points="574.5781,1208.541,578.5781,1218.541,582.5781,1208.541,578.5781,1212.541" style="stroke:#181818;stroke-width:1;"/><line style="stroke:#181818;stroke-width:1;" x1="578.5781" x2="578.5781" y1="1460.7285" y2="1480.7285"/><polygon fill="#181818" points="574.5781,1470.7285,578.5781,1480.7285,582.5781,1470.7285,578.5781,1474.7285" style="stroke:#181818;stroke-width:1;"/><line style="stroke:#181818;stroke-width:1;" x1="578.5781" x2="578.5781" y1="1515.8223" y2="1535.8223"/><polygon fill="#181818" points="574.5781,1525.8223,578.5781,1535.8223,582.5781,1525.8223,578.5781,1529.8223" style="stroke:#181818;stroke-width:1;"/><line style="stroke:#181818;stroke-width:1;" x1="578.5781" x2="578.5781" y1="1586.0098" y2="1606.0098"/><polygon fill="#181818" points="574.5781,1596.0098,578.5781,1606.0098,582.5781,1596.0098,578.5781,1600.0098" style="stroke:#181818;stroke-width:1;"/><line style="stroke:#181818;stroke-width:1;" x1="578.5781" x2="578.5781" y1="1138.5293" y2="1163.4473"/><polygon fill="#181818" points="574.5781,1153.4473,578.5781,1163.4473,582.5781,1153.4473,578.5781,1157.4473" style="stroke:#181818;stroke-width:1;"/><line style="stroke:#181818;stroke-width:1;" x1="637.6477" x2="761.3193" y1="1126.5293" y2="1126.5293"/><polygon fill="#181818" points="757.3193,1399.7754,761.3193,1409.7754,765.3193,1399.7754,761.3193,1403.7754" style="stroke:#181818;stroke-width:1;"/><line style="stroke:#181818;stroke-width:1;" x1="761.3193" x2="761.3193" y1="1126.5293" y2="1673.1035"/><line style="stroke:#181818;stroke-width:1;" x1="761.3193" x2="590.5781" y1="1673.1035" y2="1673.1035"/><polygon fill="#181818" points="600.5781,1669.1035,590.5781,1673.1035,600.5781,1677.1035,596.5781,1673.1035" style="stroke:#181818;stroke-width:1;"/><line style="stroke:#181818;stroke-width:1;" x1="578.5781" x2="578.5781" y1="1641.1035" y2="1661.1035"/><polygon fill="#181818" points="574.5781,1651.1035,578.5781,1661.1035,582.5781,1651.1035,578.5781,1655.1035" style="stroke:#181818;stroke-width:1;"/><line style="stroke:#181818;stroke-width:1;" x1="578.5781" x2="578.5781" y1="1094.5293" y2="1114.5293"/><polygon fill="#181818" points="574.5781,1104.5293,578.5781,1114.5293,582.5781,1104.5293,578.5781,1108.5293" style="stroke:#181818;stroke-width:1;"/><line style="stroke:#181818;stroke-width:1;" x1="578.5781" x2="578.5781" y1="1685.1035" y2="1705.1035"/><polygon fill="#181818" points="574.5781,1695.1035,578.5781,1705.1035,582.5781,1695.1035,578.5781,1699.1035" style="stroke:#181818;stroke-width:1;"/><text fill="#000000" font-family="sans-serif" font-size="18" lengthAdjust="spacing" textLength="128.0127" x="147.7529" y="69.75">MODO ONLINE</text><text fill="#000000" font-family="sans-serif" font-size="18" lengthAdjust="spacing" textLength="137.0039" x="525.917" y="69.75">MODO OFFLINE</text><!--SRC=[TLHBRXD14DtFAKfYun22eqH8C5uW83CG4M9BZiGccqftsQwatJrqj_D1MR3Y08WJiCk25KVmJN8IggUTnCPauv7gqw_UUrME70t1aAtopl9NL3p_O-64DNjIYfr50zLmiBi3jzz_mbjKPsHrKOGpjWrwd4AOe7ONRCSmGXEeAAwVL2_h5zMhwq_zlJxq3m_s3wlh8aJqiIW_yrRDe9mb5QMlLvJlgoFeOiFTS6LLjo4V13Ei9UBCMxSU9jzioMiZ7lSAwoA1v_4a5W3lK4tcDq0MXeFzkXv25muu2jTwM4hwzjilk0TxVYgVks06MWazWEImA009h2ZxyiH2Ckly5CsnxKpHApob11sPfeq3JsWsUWMFe8E1GoIh665CLferljw0E97YJfZ_tX38Sj0VBYW-L0jpWFJ0XwEZ0UniR__R9NqoOcGxGvzgIRo0ZbXYt2BzPZ2e3lTW-T6MZeoid44mJhLZIg_LF2hoRuYkIPxMTRrRRIyyhUiLKvlvZTUi4JH1DbXJR0r6CKoX7wC7bGtH5AGgUoB8gnuyMv5VPYbT4jYdXG6DqOKy9OKbdJTXCYCZ13Pb0uLLub0kaPJ5_N5i7sCljHGoY2oyxELbSZERbRbu4fedXXHhj-QL8VB_UnIahI6CMVhMqINhvQPEyYNrse849fv2_-EwhTBUCaqYJ1s4-qjDugPqTjgw-t9FR0KeEg3BHXWbIBEeRJsz6muk9Yp7t_ao8urMWcEPqBlGCZjFMZx2JI2sqlaTszLhVDecpvqv5rKGblu0Uilhz1S0]--></g></svg>